<svg width="20" height="20" viewBox="0 0 20 20" fill="none" xmlns="http://www.w3.org/2000/svg">
<path d="M2.98102 12.4391C1.63613 12.4391 0.541992 11.3449 0.541992 10.0001C0.541992 8.65518 1.63613 7.56104 2.98102 7.56104C4.3259 7.56104 5.42004 8.65518 5.42004 10.0001C5.42004 11.3449 4.3259 12.4391 2.98102 12.4391Z" fill="#62BEC1"/>
<path d="M2.98102 12.9811C1.3373 12.9811 0 11.6438 0 10.0001C0 8.35631 1.3373 7.01904 2.98102 7.01904C4.62473 7.01904 5.96207 8.35631 5.96207 10.0001C5.96207 11.6438 4.62477 12.9811 2.98102 12.9811ZM2.98102 8.10303C1.935 8.10303 1.08398 8.95404 1.08398 10.0001C1.08398 11.0461 1.935 11.8971 2.98102 11.8971C4.02703 11.8971 4.87805 11.0461 4.87805 10.0001C4.87805 8.95404 4.02703 8.10303 2.98102 8.10303Z" fill="white"/>
<path d="M9.99997 12.4391C8.65508 12.4391 7.56094 11.3449 7.56094 10.0001C7.56094 8.65518 8.65508 7.56104 9.99997 7.56104C11.3448 7.56104 12.439 8.65518 12.439 10.0001C12.439 11.3449 11.3448 12.4391 9.99997 12.4391Z" fill="#62BEC1"/>
<path d="M9.99997 12.9811C8.35622 12.9811 7.01895 11.6438 7.01895 10.0001C7.01895 8.35635 8.35622 7.01904 9.99997 7.01904C11.6437 7.01904 12.981 8.35631 12.981 10.0001C12.981 11.6438 11.6437 12.9811 9.99997 12.9811ZM9.99997 8.10303C8.95395 8.10303 8.10294 8.95404 8.10294 10.0001C8.10294 11.0461 8.95395 11.8971 9.99997 11.8971C11.046 11.8971 11.897 11.0461 11.897 10.0001C11.897 8.95404 11.046 8.10303 9.99997 8.10303Z" fill="white"/>
<path d="M17.0189 12.9811C15.3752 12.9811 14.0379 11.6438 14.0379 10.0001C14.0379 8.35635 15.3752 7.01904 17.0189 7.01904C18.6626 7.01904 19.9999 8.35631 19.9999 10.0001C19.9999 10.2994 19.7572 10.5421 19.4579 10.5421C19.1586 10.5421 18.9159 10.2994 18.9159 10.0001C18.9159 8.95404 18.0649 8.10303 17.0189 8.10303C15.9729 8.10303 15.1219 8.95404 15.1219 10.0001C15.1219 11.0461 15.9729 11.8971 17.0189 11.8971C17.3643 11.8971 17.7025 11.8029 17.997 11.6249C18.2532 11.4699 18.5863 11.552 18.7412 11.8081C18.8961 12.0643 18.8141 12.3975 18.5579 12.5524C18.0943 12.8328 17.562 12.9811 17.0189 12.9811Z" fill="white"/>
</svg>
