<svg width="20" height="20" viewBox="0 0 20 20" fill="none" xmlns="http://www.w3.org/2000/svg">
<g clip-path="url(#clip0)">
<path d="M14.2604 12.0302C14.2522 11.1875 13.5668 10.5087 12.7241 10.5087H11.3158V8.37287C11.3158 7.7765 11.7993 7.29307 12.3956 7.29307H12.9116C13.6746 7.29307 14.2932 6.67447 14.2932 5.91143C14.2932 5.14838 13.6746 4.52979 12.9116 4.52979H11.6411C9.76434 4.52979 8.24297 6.05115 8.24297 7.92787V10.5086H7.24246C6.39395 10.5086 5.70605 11.1965 5.70605 12.045C5.70605 12.8935 6.39391 13.5814 7.24246 13.5814H8.24297V19.4328H11.3158V13.5815H12.7241C13.5785 13.5815 14.2687 12.8845 14.2604 12.0302Z" fill="#3B5998"/>
<path d="M11.3157 20H8.24289C7.92957 20 7.67559 19.746 7.67559 19.4327V14.1487H7.24238C6.08242 14.1487 5.13867 13.205 5.13867 12.045C5.13867 10.885 6.08238 9.94123 7.24238 9.94123H7.67559V7.92779C7.67559 5.74127 9.45445 3.9624 11.641 3.9624H12.9115C13.9861 3.9624 14.8604 4.8367 14.8604 5.91135C14.8604 6.98596 13.9861 7.86029 12.9115 7.86029H12.3955C12.1129 7.86029 11.883 8.09022 11.883 8.37279V9.94131H12.724C13.8728 9.94131 14.8164 10.8759 14.8276 12.0246C14.8331 12.5904 14.6169 13.1233 14.2187 13.5253C13.8205 13.9273 13.2897 14.1487 12.7239 14.1487H11.883V19.4327C11.883 19.746 11.6291 20 11.3157 20ZM8.81027 18.8654H10.7485V13.5813C10.7485 13.268 11.0025 13.014 11.3158 13.014H12.7241C12.9847 13.014 13.2293 12.9121 13.4126 12.7269C13.596 12.5417 13.6957 12.2962 13.6931 12.0355C13.688 11.5063 13.2532 11.0758 12.724 11.0758H11.3157C11.0024 11.0758 10.7484 10.8218 10.7484 10.5085V8.37268C10.7484 7.46447 11.4873 6.72557 12.3955 6.72557H12.9115C13.3605 6.72557 13.7259 6.36029 13.7259 5.91123C13.7259 5.46221 13.3606 5.09689 12.9115 5.09689H11.641C10.0801 5.09689 8.81023 6.36678 8.81023 7.92768V10.5084C8.81023 10.8217 8.55625 11.0757 8.24293 11.0757H7.24242C6.70809 11.0757 6.27336 11.5104 6.27336 12.0449C6.27336 12.5792 6.70809 13.0139 7.24242 13.0139H8.24293C8.55625 13.0139 8.81023 13.2679 8.81023 13.5812V18.8654H8.81027Z" fill="white"/>
<path d="M16.8934 20H15.4181C15.1048 20 14.8508 19.746 14.8508 19.4327C14.8508 19.1194 15.1048 18.8654 15.4181 18.8654H16.8934C17.9808 18.8654 18.8656 17.9806 18.8656 16.8931V3.10688C18.8656 2.01941 17.9809 1.13461 16.8934 1.13461H8.37395C8.06063 1.13461 7.80664 0.880625 7.80664 0.567305C7.80664 0.253984 8.06063 0 8.37395 0H16.8934C18.6065 0 20.0002 1.39371 20.0002 3.10688V16.8931C20.0002 18.6063 18.6065 20 16.8934 20Z" fill="white"/>
<path d="M11.3161 20H3.10688C1.39371 20 0 18.6063 0 16.8931V3.10688C0 1.39371 1.39371 0 3.10688 0H4.38359C4.69691 0 4.9509 0.253984 4.9509 0.567305C4.9509 0.880625 4.69691 1.13461 4.38359 1.13461H3.10688C2.01941 1.13461 1.13461 2.01938 1.13461 3.10688V16.8931C1.13461 17.9806 2.01938 18.8654 3.10688 18.8654H11.3161C11.6295 18.8654 11.8834 19.1194 11.8834 19.4327C11.8834 19.746 11.6295 20 11.3161 20Z" fill="white"/>
</g>
<defs>
<clipPath id="clip0">
<rect width="20" height="20" fill="white"/>
</clipPath>
</defs>
</svg>
