<svg width="20" height="20" viewBox="0 0 20 20" fill="none" xmlns="http://www.w3.org/2000/svg">
<path d="M16.8934 20H15.4181C15.1048 20 14.8508 19.746 14.8508 19.4327C14.8508 19.1194 15.1048 18.8654 15.4181 18.8654H16.8934C17.9808 18.8654 18.8656 17.9806 18.8656 16.8931V3.10688C18.8656 2.01941 17.9809 1.13461 16.8934 1.13461H8.37395C8.06063 1.13461 7.80664 0.880625 7.80664 0.567305C7.80664 0.253984 8.06063 0 8.37395 0H16.8934C18.6065 0 20.0002 1.39371 20.0002 3.10688V16.8931C20.0002 18.6063 18.6065 20 16.8934 20Z" fill="white"/>
<path d="M11.3161 20H3.10688C1.39371 20 0 18.6063 0 16.8931V3.10688C0 1.39371 1.39371 0 3.10688 0H4.38359C4.69691 0 4.9509 0.253984 4.9509 0.567305C4.9509 0.880625 4.69691 1.13461 4.38359 1.13461H3.10688C2.01941 1.13461 1.13461 2.01938 1.13461 3.10688V16.8931C1.13461 17.9806 2.01938 18.8654 3.10688 18.8654H11.3161C11.6295 18.8654 11.8834 19.1194 11.8834 19.4327C11.8834 19.746 11.6295 20 11.3161 20Z" fill="white"/>
<path d="M15.5114 4.71447L3.94542 9.2217C3.5707 9.36771 3.59351 9.90529 3.97917 10.019L6.62109 10.7991L7.44226 13.8739C7.55679 14.2375 8.01745 14.3476 8.28413 14.0753L9.91003 12.5237L13.3582 15.2058C13.7231 15.4736 14.2427 15.2745 14.3353 14.8316L16.31 5.3906C16.4067 4.9281 15.9517 4.54287 15.5114 4.71447Z" fill="#0088CC"/>
<path d="M13.7244 15.8943H13.7243C13.4711 15.8943 13.2283 15.8144 13.0224 15.6633C13.0182 15.6601 13.014 15.657 13.0098 15.6537L9.94778 13.2719L8.68137 14.4805C8.47883 14.6832 8.21079 14.7946 7.92528 14.7946C7.45403 14.7946 7.04243 14.4932 6.9011 14.0445C6.8986 14.0365 6.89622 14.0285 6.89407 14.0204L6.15508 11.2532L3.81844 10.5633C3.40653 10.4417 3.12848 10.0858 3.11032 9.65665C3.09211 9.22743 3.33907 8.84927 3.73942 8.69325L15.3054 4.18603C15.4422 4.13271 15.5848 4.10571 15.7292 4.10571C16.0794 4.10571 16.4082 4.26313 16.6312 4.53759C16.8519 4.80927 16.9372 5.16259 16.8652 5.50688L14.8904 14.9479C14.7758 15.4963 14.2854 15.8943 13.7244 15.8943ZM13.6972 14.751C13.7064 14.757 13.7147 14.7597 13.7244 14.7597C13.7291 14.7597 13.7709 14.7585 13.7799 14.7156L15.7546 5.27458C15.7568 5.26395 15.756 5.2597 15.7506 5.25302C15.7447 5.24575 15.7354 5.24024 15.7292 5.24024C15.7263 5.24024 15.7222 5.24126 15.7174 5.24313L4.54825 9.59567L6.78157 10.2551C6.97118 10.3111 7.11797 10.4618 7.16903 10.6529L7.95696 13.6033L9.51821 12.1134C9.72153 11.9193 10.0363 11.9034 10.2582 12.076L13.6972 14.751Z" fill="white"/>
<path d="M8.58082 14.0705C8.59863 14.1282 9.24859 13.3157 9.25551 13.2556L8.96398 11.8284C8.92559 11.6404 8.99371 11.4466 9.14125 11.3239L14.4849 6.88354C14.6135 6.76975 14.4641 6.56909 14.3183 6.65944L8.03445 10.4921C7.88547 10.583 7.80859 10.7567 7.84152 10.9281L8.58082 14.0705Z" fill="white"/>
</svg>
