<svg width="20" height="20" viewBox="0 0 20 20" fill="none" xmlns="http://www.w3.org/2000/svg">
<path d="M16.8934 20H15.4181C15.1048 20 14.8508 19.746 14.8508 19.4327C14.8508 19.1194 15.1048 18.8654 15.4181 18.8654H16.8934C17.9808 18.8654 18.8656 17.9806 18.8656 16.8931V3.10688C18.8656 2.01941 17.9809 1.13461 16.8934 1.13461H8.37395C8.06063 1.13461 7.80664 0.880625 7.80664 0.567305C7.80664 0.253984 8.06063 0 8.37395 0H16.8934C18.6065 0 20.0002 1.39371 20.0002 3.10688V16.8931C20.0002 18.6063 18.6065 20 16.8934 20Z" fill="white"/>
<path d="M11.3161 20H3.10688C1.39371 20 0 18.6063 0 16.8931V3.10688C0 1.39371 1.39371 0 3.10688 0H4.38359C4.69691 0 4.9509 0.253984 4.9509 0.567305C4.9509 0.880625 4.69691 1.13461 4.38359 1.13461H3.10688C2.01941 1.13461 1.13461 2.01938 1.13461 3.10688V16.8931C1.13461 17.9806 2.01938 18.8654 3.10688 18.8654H11.3161C11.6295 18.8654 11.8834 19.1194 11.8834 19.4327C11.8834 19.746 11.6295 20 11.3161 20Z" fill="white"/>
<path d="M15.7204 6.60865L14.2527 6.04951C13.9417 5.35349 13.4345 4.85584 12.7339 4.69302C10.6841 4.21666 9.60284 6.13962 9.82308 7.50783C9.85417 7.70087 9.90652 7.88525 9.97761 8.05892C9.79421 8.08087 7.11722 8.35919 4.81616 6.58611C4.63472 6.44634 4.37116 6.54986 4.32597 6.77447C4.19964 7.40146 4.23214 8.54255 5.71019 9.47295C5.71019 9.47295 5.41718 9.50822 5.05234 9.45052C4.81945 9.41369 4.63195 9.63517 4.7087 9.85814C4.91566 10.4591 5.47077 11.3676 6.94327 11.4713C6.94327 11.4713 6.72913 11.5944 6.34085 11.6572C6.10745 11.6949 6.00062 11.9718 6.14945 12.1556C6.50066 12.5892 7.20011 13.1573 8.41421 13.0575C8.41421 13.0575 8.50077 14.0628 4.94175 14.6836C4.94159 14.6836 6.73019 15.3811 8.87554 15.3811C14.8264 15.3811 14.8293 10.4065 14.6025 7.51869L15.7204 6.60865Z" fill="#1DA1F2"/>
<path d="M8.87538 15.9484C7.71084 15.9484 6.65249 15.75 5.96967 15.5835C5.58299 15.4893 5.27198 15.3948 5.0792 15.3321C4.68791 15.205 4.40518 15.1131 4.37592 14.7265C4.35381 14.4353 4.55643 14.1749 4.84413 14.1247C5.99112 13.9247 6.70592 13.6923 7.14932 13.4899C6.58245 13.3134 6.08784 12.9811 5.70846 12.5127C5.5203 12.2802 5.46463 11.9654 5.55959 11.683C4.7185 11.25 4.33881 10.5268 4.17213 10.043C4.07991 9.77496 4.12268 9.47769 4.28667 9.24781C4.32428 9.19512 4.36721 9.14727 4.41444 9.1048C3.60534 8.13551 3.67631 7.12582 3.76971 6.66246C3.85225 6.25273 4.21471 5.95543 4.63159 5.95543C4.82475 5.95543 5.00827 6.01812 5.16229 6.13687C6.65166 7.28449 8.31444 7.50137 9.25128 7.51906C9.13831 6.65895 9.42288 5.7127 10.0038 5.03078C10.5417 4.39949 11.291 4.05176 12.1137 4.05176C12.3567 4.05176 12.6085 4.08164 12.8622 4.14059C13.6374 4.32078 14.2565 4.82316 14.6645 5.59949L15.9223 6.07871C16.1117 6.15086 16.2482 6.31863 16.2804 6.51867C16.3125 6.71875 16.2356 6.9209 16.0783 7.04883L15.1896 7.77215C15.3336 9.89496 15.2438 12.463 13.64 14.1977C12.5661 15.3593 10.963 15.9484 8.87538 15.9484ZM7.23385 14.68C7.73256 14.7585 8.29116 14.8138 8.87541 14.8138C10.6338 14.8138 11.9566 14.3473 12.8071 13.4273C14.188 11.9337 14.1897 9.50875 14.0369 7.56305C14.0223 7.37731 14.0998 7.19621 14.2443 7.07863L14.6002 6.78895L14.0507 6.57961C13.9099 6.52594 13.7962 6.41848 13.7348 6.28094C13.479 5.70863 13.099 5.36031 12.6055 5.24559C12.4358 5.20617 12.2705 5.18617 12.1138 5.18617C11.4923 5.18617 11.0931 5.50172 10.8676 5.76641C10.4842 6.21641 10.2941 6.86449 10.3831 7.41766C10.4067 7.56465 10.4469 7.70813 10.5026 7.84398C10.5697 8.00793 10.5564 8.19379 10.4665 8.34645C10.3767 8.4991 10.2208 8.60109 10.0449 8.62215C9.98108 8.6298 9.74467 8.65473 9.38342 8.65473C8.4051 8.65473 6.57229 8.47227 4.84772 7.3082C4.86913 7.82082 5.13155 8.4384 6.01225 8.99277C6.21553 9.12074 6.3162 9.36281 6.26358 9.59723C6.21092 9.83164 6.01639 10.0074 5.77784 10.0361C5.75741 10.0385 5.6469 10.0509 5.48081 10.0509C5.45995 10.0509 5.43913 10.0507 5.41831 10.0503C5.72709 10.5667 6.25159 10.8538 6.98307 10.9053C7.23206 10.9229 7.44034 11.101 7.49616 11.3443C7.55198 11.5876 7.44225 11.8387 7.22584 11.9631C7.19549 11.9805 7.0844 12.0409 6.90034 12.1027C7.18069 12.3204 7.58139 12.5016 8.13799 12.5016C8.2126 12.5016 8.28991 12.4984 8.36768 12.492C8.67858 12.4665 8.95256 12.6974 8.9794 13.0087C8.99069 13.1397 8.9794 13.6047 8.36069 14.0855C8.07881 14.3047 7.70229 14.5031 7.23385 14.68Z" fill="white"/>
</svg>
