<svg width="20" height="20" viewBox="0 0 20 20" fill="none" xmlns="http://www.w3.org/2000/svg">
<g clip-path="url(#clip0)">
<path d="M16.8933 20H15.4181C15.1048 20 14.8508 19.746 14.8508 19.4327C14.8508 19.1194 15.1048 18.8654 15.4181 18.8654H16.8933C17.9808 18.8654 18.8656 17.9806 18.8656 16.8931V3.10687C18.8656 2.01941 17.9808 1.13461 16.8933 1.13461H8.37394C8.06062 1.13461 7.80664 0.880586 7.80664 0.567304C7.80664 0.254023 8.06062 0 8.37394 0H16.8934C18.6065 0 20.0002 1.39371 20.0002 3.10687V16.8932C20.0002 18.6063 18.6065 20 16.8933 20Z" fill="white"/>
<path d="M11.3162 20.001H3.10687C1.39371 20.001 0 18.6073 0 16.8941V3.10785C0 1.39469 1.39371 0.000976562 3.10687 0.000976562H4.38359C4.69691 0.000976562 4.95089 0.255 4.95089 0.568281C4.95089 0.881562 4.69691 1.13559 4.38359 1.13559H3.10687C2.01941 1.13559 1.13461 2.02035 1.13461 3.10785V16.8942C1.13461 17.9816 2.01937 18.8664 3.10687 18.8664H11.3162C11.6294 18.8664 11.8835 19.1205 11.8835 19.4337C11.8835 19.747 11.6294 20.001 11.3162 20.001Z" fill="white"/>
<path d="M15.9997 13.9281C15.539 13.9281 14.9756 13.9152 14.735 13.9097C14.6625 13.9081 14.6153 13.907 14.6024 13.907C14.2169 13.9052 13.885 13.7731 13.6158 13.5141C13.3975 13.304 13.1861 13.0742 12.9817 12.852C12.866 12.7263 12.7464 12.5963 12.6257 12.47C12.5041 12.3427 12.3896 12.2387 12.2754 12.152C12.1273 12.0391 11.9695 11.9793 11.8195 11.9793C11.5714 11.9793 11.367 12.1353 11.2589 12.4074C11.1346 12.7211 11.0392 13.4872 11.0357 13.5344C11.0204 13.7495 10.8974 13.8601 10.6597 13.8732C10.5038 13.8816 10.3508 13.886 10.205 13.886C9.26565 13.886 8.47265 13.7058 7.78066 13.3351C7.08089 12.9603 6.45343 12.4113 5.86257 11.6569C5.11605 10.7041 4.44379 9.59948 3.68281 8.07549C3.64629 8.00237 3.06223 6.75714 3.00617 6.61667C2.99024 6.55124 2.98156 6.44448 3.03691 6.40858C3.07906 6.4046 3.20738 6.3978 3.59039 6.3978C4.22906 6.3978 5.16894 6.41714 5.22093 6.41897C5.48406 6.43323 5.62746 6.53679 5.72949 6.78835C6.17527 7.88905 6.70605 8.81737 7.35218 9.62616C7.45011 9.74932 7.57804 9.8667 7.72202 9.96533C7.82308 10.0347 7.93148 10.0713 8.03542 10.0713H8.03546C8.23335 10.0713 8.3964 9.94487 8.47159 9.73284C8.558 9.49166 8.62749 9.04776 8.63175 8.81233C8.64304 8.23479 8.63026 7.85811 8.59913 7.28003C8.57003 6.7455 8.31581 6.42616 7.82292 6.3064C7.97284 6.14425 8.17714 6.10272 8.48917 6.08605C8.66386 6.07663 8.85491 6.07202 9.07343 6.07202C9.27651 6.07202 9.48417 6.07589 9.68499 6.07968C9.82608 6.08233 9.9671 6.08495 10.1081 6.08636C10.3407 6.08847 10.5423 6.10882 10.7249 6.1487C10.8358 6.17288 10.9884 6.23589 11.0335 6.50429C11.0566 6.6405 11.0668 6.77261 11.0639 6.89725C11.0581 7.15296 11.0494 7.41315 11.0412 7.66475C11.0292 8.02651 11.0168 8.40061 11.0125 8.76971C11.0091 9.05616 11.0335 9.32018 11.0849 9.55448C11.1529 9.86217 11.3374 10.0457 11.5787 10.0457C11.6801 10.0457 11.8355 10.0098 12.0005 9.83889C12.2617 9.5676 12.5139 9.25194 12.8183 8.81553C13.2154 8.24588 13.5584 7.58147 13.8978 6.72448C14.0117 6.43772 14.0409 6.41757 14.3442 6.4169C14.7422 6.41589 15.1401 6.4153 15.5381 6.4153C15.8873 6.4153 16.2366 6.41581 16.5858 6.4169C16.719 6.41749 16.8265 6.43124 16.9144 6.45917C16.9746 6.47835 17.0267 6.50624 16.9978 6.63339C16.8915 7.10511 16.6189 7.5171 16.3717 7.86616C16.0715 8.28999 15.7556 8.71526 15.4501 9.12655C15.2892 9.34307 15.1284 9.55967 14.9688 9.77713C14.9104 9.85694 14.8542 9.94592 14.7922 10.0571C14.5658 10.4669 14.6017 10.7543 14.9199 11.0829C15.0891 11.2574 15.2649 11.429 15.435 11.5949C15.675 11.8292 15.9233 12.0714 16.151 12.3205C16.439 12.6361 16.6925 12.9658 16.9043 13.3003C17.0024 13.4551 17.0305 13.6051 16.9813 13.7116C16.9338 13.8145 16.8119 13.8847 16.6381 13.9094C16.588 13.9163 16.4383 13.9281 15.9997 13.9281Z" fill="#5186BD"/>
<path d="M15.9996 14.4955C15.535 14.4955 14.968 14.4826 14.7259 14.4771C14.6569 14.4755 14.6134 14.4744 14.5991 14.4743C14.0711 14.4719 13.5948 14.2813 13.2225 13.9229C12.9907 13.6998 12.7738 13.4641 12.5641 13.2361L12.5569 13.2282C12.4453 13.107 12.33 12.9817 12.2155 12.8619C12.1149 12.7566 12.0221 12.6721 11.932 12.6036C11.8799 12.5639 11.8416 12.5504 11.8255 12.5474C11.8177 12.556 11.8021 12.5764 11.786 12.617C11.709 12.8114 11.6192 13.4053 11.6011 13.5815C11.5633 14.0817 11.2148 14.411 10.6906 14.4397C10.524 14.4487 10.3607 14.4533 10.2049 14.4533C9.16965 14.4533 8.28903 14.2511 7.51262 13.8352C6.74204 13.4224 6.05618 12.8244 5.41583 12.0068C4.64501 11.0229 3.95392 9.88862 3.17513 8.32902C3.14205 8.26277 2.54537 6.99304 2.47912 6.82683C2.46924 6.80211 2.46115 6.77676 2.45482 6.75086C2.3717 6.40945 2.47631 6.09594 2.72791 5.93269C2.80466 5.88293 2.89224 5.85242 2.9833 5.84387C3.01814 5.84051 3.12412 5.83055 3.59021 5.83055C4.24431 5.83055 5.18493 5.85012 5.24068 5.85203C5.24423 5.85219 5.24782 5.8523 5.25138 5.85254C5.73341 5.87863 6.07106 6.12172 6.25493 6.57511C6.67997 7.62464 7.1838 8.50675 7.79512 9.2721C7.84141 9.33038 7.90083 9.38874 7.96731 9.44179C8.01872 9.2455 8.06153 8.95175 8.06426 8.8021C8.07528 8.24132 8.06274 7.87437 8.03239 7.31058C8.01505 6.99238 7.90774 6.91097 7.68872 6.85777C7.49333 6.81027 7.33766 6.66289 7.27958 6.47043C7.22149 6.27793 7.26966 6.06906 7.40614 5.92141C7.70149 5.60199 8.08653 5.53965 8.45868 5.51977C8.64364 5.50977 8.84473 5.50488 9.07325 5.50488C9.28282 5.50488 9.49262 5.50879 9.69543 5.51266C9.83492 5.51527 9.97438 5.51789 10.1138 5.5193C10.385 5.52172 10.6247 5.54641 10.8457 5.59465C11.2479 5.68219 11.5204 5.97949 11.5929 6.41031C11.6218 6.58164 11.6346 6.75011 11.6309 6.91074C11.6251 7.16449 11.6167 7.42187 11.6084 7.67078L11.6079 7.68367C11.596 8.04562 11.5837 8.41503 11.5796 8.7764C11.5768 9.00714 11.5946 9.21753 11.6325 9.40261C11.858 9.16304 12.0822 8.8791 12.3528 8.49113C12.724 7.95859 13.0473 7.33086 13.3701 6.51574C13.57 6.01258 13.8062 5.85086 14.3428 5.84973C15.0908 5.84785 15.8392 5.84734 16.5874 5.84973C16.7796 5.85051 16.9425 5.87305 17.0859 5.91859C17.4517 6.03519 17.6383 6.37277 17.5508 6.75894C17.4217 7.33203 17.1133 7.80023 16.8344 8.19417C16.5313 8.6221 16.2144 9.0487 15.908 9.46136C15.745 9.6807 15.5848 9.89636 15.4259 10.1129C15.3818 10.1732 15.3376 10.2434 15.2874 10.3335C15.177 10.5333 15.1912 10.548 15.3271 10.6883C15.491 10.8573 15.6638 11.026 15.8309 11.189C16.0781 11.4303 16.3315 11.6776 16.5695 11.9379C16.8801 12.2783 17.1538 12.6344 17.3834 12.9969C17.5866 13.3177 17.6276 13.665 17.496 13.9497C17.4203 14.1138 17.2183 14.4 16.7176 14.4712C16.6425 14.4815 16.487 14.4955 15.9996 14.4955ZM11.8194 11.412C12.0948 11.412 12.3714 11.5119 12.6194 11.7008C12.757 11.8055 12.8934 11.929 13.0358 12.078C13.1576 12.2055 13.2765 12.3346 13.3916 12.4597L13.399 12.4678C13.5974 12.6835 13.8023 12.9063 14.0092 13.1054C14.1719 13.262 14.3668 13.3386 14.6048 13.3397C14.6187 13.3398 14.6697 13.3408 14.7478 13.3427C14.9899 13.3482 15.5478 13.3609 15.9995 13.3609C16.1042 13.3609 16.1905 13.3601 16.2611 13.3591C16.1039 13.1362 15.9266 12.9164 15.7317 12.703C15.5159 12.4669 15.2743 12.231 15.0405 12.0029C14.8659 11.8324 14.6875 11.6583 14.5123 11.4778C14.0179 10.9673 13.9471 10.4129 14.2955 9.78257C14.3701 9.6487 14.4383 9.54097 14.511 9.44175C14.6714 9.22312 14.8329 9.00566 14.9944 8.78816C15.2999 8.37699 15.6129 7.9555 15.9086 7.53816C16.0296 7.36722 16.1575 7.18004 16.261 6.98332C15.6426 6.98195 15.0237 6.98254 14.4049 6.98398C14.0555 7.85839 13.6984 8.54476 13.2835 9.13991C12.9612 9.60206 12.6915 9.93898 12.4089 10.2324C12.1055 10.5471 11.7899 10.613 11.5785 10.613C11.0677 10.613 10.6564 10.2455 10.5307 9.67687C10.4699 9.39968 10.4412 9.09249 10.445 8.76304C10.4493 8.38956 10.4618 8.01398 10.4738 7.65074L10.4743 7.63328C10.4825 7.38722 10.4909 7.13293 10.4965 6.88453C10.498 6.82015 10.4945 6.75222 10.4859 6.68148C10.3712 6.66414 10.2448 6.65504 10.1027 6.65379C9.95946 6.6523 9.81672 6.64969 9.67403 6.64699C9.46371 6.64308 9.24442 6.63883 9.03512 6.63949C9.10903 6.82035 9.15305 7.02441 9.16532 7.24929C9.19719 7.84156 9.21032 8.22812 9.19864 8.82347C9.19348 9.10847 9.11457 9.61937 9.00536 9.92421C8.84922 10.3642 8.47723 10.6386 8.03516 10.6386C7.81614 10.6386 7.59677 10.5676 7.40079 10.4332C7.21102 10.3032 7.04044 10.1461 6.90774 9.97917C6.22782 9.12796 5.67005 8.15351 5.20337 7.00132C5.20103 6.99558 5.19884 6.9905 5.19685 6.98593C5.19638 6.9859 5.19587 6.98582 5.19544 6.98582C5.10904 6.98343 4.37618 6.96875 3.78845 6.96574C3.9613 7.33777 4.16185 7.76496 4.19044 7.82289C4.93345 9.31081 5.58689 10.3856 6.30888 11.3071C6.8502 11.9983 7.41915 12.4981 8.04825 12.8351C8.65579 13.1605 9.36118 13.3187 10.2047 13.3187C10.2974 13.3187 10.3935 13.3169 10.4918 13.3131C10.5289 13.034 10.6115 12.5004 10.7311 12.1985C10.9271 11.7058 11.3339 11.412 11.8194 11.412Z" fill="white"/>
</g>
<defs>
<clipPath id="clip0">
<rect width="20" height="20" fill="white"/>
</clipPath>
</defs>
</svg>
