<svg width="20" height="20" viewBox="0 0 20 20" fill="none" xmlns="http://www.w3.org/2000/svg">
<path d="M15.4247 18.7968C14.4682 18.7968 13.5286 18.5537 12.6828 18.0841C11.7941 17.5908 11.0646 16.8766 10.5554 16.0054H0.578633C0.259062 16.0054 0 15.7463 0 15.4267V1.78176C0 1.46219 0.259062 1.20312 0.578633 1.20312H19.4214C19.7409 1.20312 20 1.46219 20 1.78176V15.4267C20 15.7463 19.7409 16.0054 19.4214 16.0054H15.308C14.9885 16.0054 14.7294 15.7463 14.7294 15.4267C14.7294 15.1071 14.9885 14.8481 15.308 14.8481H18.8427V2.36039H1.15727V14.8481H10.8995C11.1183 14.8481 11.3185 14.9716 11.4167 15.1671C12.2398 16.8071 13.9539 17.7714 15.7852 17.6251C16.1035 17.5996 16.3827 17.8371 16.4082 18.1556C16.4338 18.4742 16.1962 18.7531 15.8777 18.7786C15.7265 18.7908 15.5753 18.7968 15.4247 18.7968Z" fill="#62BEC1"/>
<path d="M4.86469 10.4184C5.73488 10.4184 6.44031 9.71292 6.44031 8.84272C6.44031 7.97252 5.73488 7.26709 4.86469 7.26709C3.99449 7.26709 3.28906 7.97252 3.28906 8.84272C3.28906 9.71292 3.99449 10.4184 4.86469 10.4184Z" fill="white"/>
<path d="M4.86479 10.9972C3.67686 10.9972 2.71045 10.0307 2.71045 8.84282C2.71045 7.65493 3.67689 6.68848 4.86479 6.68848C6.05268 6.68848 7.01916 7.65493 7.01916 8.84282C7.01916 10.0307 6.05271 10.9972 4.86479 10.9972ZM4.86479 7.84571C4.31498 7.84571 3.86768 8.29297 3.86768 8.84282C3.86768 9.39267 4.31494 9.83993 4.86479 9.83993C5.41463 9.83993 5.86189 9.39267 5.86189 8.84282C5.86189 8.29297 5.41459 7.84571 4.86479 7.84571Z" fill="#62BEC1"/>
<path d="M9.99995 10.4184C10.8701 10.4184 11.5756 9.71292 11.5756 8.84272C11.5756 7.97252 10.8701 7.26709 9.99995 7.26709C9.12975 7.26709 8.42432 7.97252 8.42432 8.84272C8.42432 9.71292 9.12975 10.4184 9.99995 10.4184Z" fill="white"/>
<path d="M10 10.9969C8.81211 10.9969 7.8457 10.0305 7.8457 8.84261C7.8457 7.65472 8.81211 6.68823 10 6.68823C11.188 6.68823 12.1544 7.65468 12.1544 8.84257C12.1544 10.0305 11.188 10.9969 10 10.9969ZM10 7.8455C9.45023 7.8455 9.00293 8.29276 9.00293 8.84261C9.00293 9.39245 9.4502 9.83972 10 9.83972C10.5498 9.83972 10.9971 9.39245 10.9971 8.84261C10.9971 8.29276 10.5498 7.8455 10 7.8455Z" fill="#62BEC1"/>
<path d="M15.1352 10.4184C16.0054 10.4184 16.7108 9.71292 16.7108 8.84272C16.7108 7.97252 16.0054 7.26709 15.1352 7.26709C14.265 7.26709 13.5596 7.97252 13.5596 8.84272C13.5596 9.71292 14.265 10.4184 15.1352 10.4184Z" fill="white"/>
<path d="M15.1353 10.9972C13.9474 10.9972 12.981 10.0307 12.981 8.84282C12.981 7.65493 13.9474 6.68848 15.1353 6.68848C16.3232 6.68848 17.2896 7.65493 17.2896 8.84282C17.2896 10.0307 16.3232 10.9972 15.1353 10.9972ZM15.1353 7.84571C14.5855 7.84571 14.1382 8.29297 14.1382 8.84282C14.1382 9.39267 14.5854 9.83993 15.1353 9.83993C15.6851 9.83993 16.1324 9.39267 16.1324 8.84282C16.1324 8.29297 15.6851 7.84571 15.1353 7.84571Z" fill="#62BEC1"/>
</svg>
