<svg width="20" height="20" viewBox="0 0 20 20" fill="none" xmlns="http://www.w3.org/2000/svg">
<g clip-path="url(#clip0)">
<path d="M14.2609 12.0302C14.2527 11.1875 13.5673 10.5087 12.7246 10.5087H11.3163V8.37287C11.3163 7.7765 11.7998 7.29307 12.3961 7.29307H12.9121C13.6751 7.29307 14.2937 6.67447 14.2937 5.91143C14.2937 5.14838 13.6751 4.52979 12.9121 4.52979H11.6416C9.76483 4.52979 8.24346 6.05115 8.24346 7.92787V10.5086H7.24295C6.39443 10.5086 5.70654 11.1965 5.70654 12.045C5.70654 12.8935 6.3944 13.5814 7.24295 13.5814H8.24346V19.4328H11.3163V13.5815H12.7246C13.5789 13.5815 14.2692 12.8845 14.2609 12.0302Z" fill="white"/>
<path d="M11.3162 20H8.24338C7.93006 20 7.67607 19.746 7.67607 19.4327V14.1487H7.24287C6.08291 14.1487 5.13916 13.205 5.13916 12.045C5.13916 10.885 6.08287 9.94123 7.24287 9.94123H7.67607V7.92779C7.67607 5.74127 9.45494 3.9624 11.6415 3.9624H12.912C13.9866 3.9624 14.8609 4.8367 14.8609 5.91135C14.8609 6.98596 13.9866 7.86029 12.912 7.86029H12.396C12.1134 7.86029 11.8835 8.09022 11.8835 8.37279V9.94131H12.7245C13.8733 9.94131 14.8169 10.8759 14.8281 12.0246C14.8336 12.5904 14.6174 13.1233 14.2192 13.5253C13.821 13.9273 13.2902 14.1487 12.7244 14.1487H11.8835V19.4327C11.8835 19.746 11.6295 20 11.3162 20ZM8.81076 18.8654H10.749V13.5813C10.749 13.268 11.0029 13.014 11.3163 13.014H12.7246C12.9852 13.014 13.2297 12.9121 13.4131 12.7269C13.5965 12.5417 13.6962 12.2962 13.6936 12.0355C13.6885 11.5063 13.2537 11.0758 12.7245 11.0758H11.3162C11.0029 11.0758 10.7489 10.8218 10.7489 10.5085V8.37268C10.7489 7.46447 11.4878 6.72557 12.396 6.72557H12.912C13.361 6.72557 13.7263 6.36029 13.7263 5.91123C13.7263 5.46221 13.3611 5.09689 12.912 5.09689H11.6415C10.0806 5.09689 8.81072 6.36678 8.81072 7.92768V10.5084C8.81072 10.8217 8.55674 11.0757 8.24342 11.0757H7.24291C6.70857 11.0757 6.27385 11.5104 6.27385 12.0449C6.27385 12.5792 6.70857 13.0139 7.24291 13.0139H8.24342C8.55674 13.0139 8.81072 13.2679 8.81072 13.5812V18.8654H8.81076Z" fill="#62BEC1"/>
<path d="M16.8934 20H15.4181C15.1048 20 14.8508 19.746 14.8508 19.4327C14.8508 19.1194 15.1048 18.8654 15.4181 18.8654H16.8934C17.9808 18.8654 18.8656 17.9806 18.8656 16.8931V3.10688C18.8656 2.01941 17.9809 1.13461 16.8934 1.13461H8.37395C8.06063 1.13461 7.80664 0.880625 7.80664 0.567305C7.80664 0.253984 8.06063 0 8.37395 0H16.8934C18.6065 0 20.0002 1.39371 20.0002 3.10688V16.8931C20.0002 18.6063 18.6065 20 16.8934 20Z" fill="#62BEC1"/>
<path d="M11.3161 20H3.10688C1.39371 20 0 18.6063 0 16.8931V3.10688C0 1.39371 1.39371 0 3.10688 0H4.38359C4.69691 0 4.9509 0.253984 4.9509 0.567305C4.9509 0.880625 4.69691 1.13461 4.38359 1.13461H3.10688C2.01941 1.13461 1.13461 2.01938 1.13461 3.10688V16.8931C1.13461 17.9806 2.01938 18.8654 3.10688 18.8654H11.3161C11.6295 18.8654 11.8834 19.1194 11.8834 19.4327C11.8834 19.746 11.6295 20 11.3161 20Z" fill="#62BEC1"/>
</g>
<defs>
<clipPath id="clip0">
<rect width="20" height="20" fill="white"/>
</clipPath>
</defs>
</svg>
