<svg width="20" height="20" viewBox="0 0 20 20" fill="none" xmlns="http://www.w3.org/2000/svg">
<path d="M16.8934 20H15.4181C15.1048 20 14.8508 19.746 14.8508 19.4327C14.8508 19.1194 15.1048 18.8654 15.4181 18.8654H16.8934C17.9808 18.8654 18.8656 17.9806 18.8656 16.8931V3.10688C18.8656 2.01941 17.9809 1.13461 16.8934 1.13461H8.37395C8.06063 1.13461 7.80664 0.880625 7.80664 0.567305C7.80664 0.253984 8.06063 0 8.37395 0H16.8934C18.6065 0 20.0002 1.39371 20.0002 3.10688V16.8931C20.0002 18.6063 18.6065 20 16.8934 20Z" fill="#62BEC1"/>
<path d="M11.3161 20H3.10688C1.39371 20 0 18.6063 0 16.8931V3.10688C0 1.39371 1.39371 0 3.10688 0H4.38359C4.69691 0 4.9509 0.253984 4.9509 0.567305C4.9509 0.880625 4.69691 1.13461 4.38359 1.13461H3.10688C2.01941 1.13461 1.13461 2.01938 1.13461 3.10688V16.8931C1.13461 17.9806 2.01938 18.8654 3.10688 18.8654H11.3161C11.6295 18.8654 11.8834 19.1194 11.8834 19.4327C11.8834 19.746 11.6295 20 11.3161 20Z" fill="#62BEC1"/>
<path d="M15.7204 6.60865L14.2527 6.04951C13.9417 5.35349 13.4345 4.85584 12.7339 4.69302C10.6841 4.21666 9.60284 6.13962 9.82308 7.50783C9.85417 7.70087 9.90652 7.88525 9.97761 8.05892C9.79421 8.08087 7.11722 8.35919 4.81616 6.58611C4.63472 6.44634 4.37116 6.54986 4.32597 6.77447C4.19964 7.40146 4.23214 8.54255 5.71019 9.47295C5.71019 9.47295 5.41718 9.50822 5.05234 9.45052C4.81945 9.41369 4.63195 9.63517 4.7087 9.85814C4.91566 10.4591 5.47077 11.3676 6.94327 11.4713C6.94327 11.4713 6.72913 11.5944 6.34085 11.6572C6.10745 11.6949 6.00062 11.9718 6.14945 12.1556C6.50066 12.5892 7.20011 13.1573 8.41421 13.0575C8.41421 13.0575 8.50077 14.0628 4.94175 14.6836C4.94159 14.6836 6.73019 15.3811 8.87554 15.3811C14.8264 15.3811 14.8293 10.4065 14.6025 7.51869L15.7204 6.60865Z" fill="white"/>
<path d="M8.87586 15.9484C7.71133 15.9484 6.65297 15.75 5.97016 15.5835C5.58348 15.4893 5.27247 15.3948 5.07969 15.3321C4.6884 15.205 4.40567 15.1131 4.37641 14.7265C4.3543 14.4353 4.55692 14.1749 4.84461 14.1247C5.99161 13.9247 6.70641 13.6923 7.14981 13.4899C6.58293 13.3134 6.08833 12.9811 5.70895 12.5127C5.52079 12.2802 5.46512 11.9654 5.56008 11.683C4.71899 11.25 4.3393 10.5268 4.17262 10.043C4.0804 9.77496 4.12317 9.47769 4.28715 9.24781C4.32477 9.19512 4.3677 9.14727 4.41493 9.1048C3.60583 8.13551 3.6768 7.12582 3.7702 6.66246C3.85274 6.25273 4.2152 5.95543 4.63208 5.95543C4.82524 5.95543 5.00875 6.01812 5.16278 6.13687C6.65215 7.28449 8.31493 7.50137 9.25176 7.51906C9.13879 6.65895 9.42336 5.7127 10.0043 5.03078C10.5422 4.39949 11.2915 4.05176 12.1142 4.05176C12.3572 4.05176 12.609 4.08164 12.8627 4.14059C13.6379 4.32078 14.257 4.82316 14.665 5.59949L15.9227 6.07871C16.1122 6.15086 16.2487 6.31863 16.2809 6.51867C16.313 6.71875 16.2361 6.9209 16.0788 7.04883L15.1901 7.77215C15.3341 9.89496 15.2443 12.463 13.6405 14.1977C12.5666 15.3593 10.9635 15.9484 8.87586 15.9484ZM7.23434 14.68C7.73305 14.7585 8.29165 14.8138 8.8759 14.8138C10.6343 14.8138 11.9571 14.3473 12.8076 13.4273C14.1885 11.9337 14.1902 9.50875 14.0373 7.56305C14.0228 7.37731 14.1003 7.19621 14.2448 7.07863L14.6007 6.78895L14.0512 6.57961C13.9104 6.52594 13.7967 6.41848 13.7352 6.28094C13.4795 5.70863 13.0995 5.36031 12.6059 5.24559C12.4363 5.20617 12.2709 5.18617 12.1143 5.18617C11.4927 5.18617 11.0936 5.50172 10.8681 5.76641C10.4847 6.21641 10.2946 6.86449 10.3836 7.41766C10.4072 7.56465 10.4474 7.70813 10.5031 7.84398C10.5702 8.00793 10.5568 8.19379 10.467 8.34645C10.3772 8.4991 10.2213 8.60109 10.0454 8.62215C9.98157 8.6298 9.74516 8.65473 9.38391 8.65473C8.40559 8.65473 6.57278 8.47227 4.84821 7.3082C4.86961 7.82082 5.13204 8.4384 6.01274 8.99277C6.21602 9.12074 6.31668 9.36281 6.26407 9.59723C6.21141 9.83164 6.01688 10.0074 5.77833 10.0361C5.7579 10.0385 5.64739 10.0509 5.48129 10.0509C5.46043 10.0509 5.43961 10.0507 5.41879 10.0503C5.72758 10.5667 6.25207 10.8538 6.98356 10.9053C7.23254 10.9229 7.44083 11.101 7.49665 11.3443C7.55247 11.5876 7.44274 11.8387 7.22633 11.9631C7.19598 11.9805 7.08489 12.0409 6.90083 12.1027C7.18118 12.3204 7.58188 12.5016 8.13848 12.5016C8.21309 12.5016 8.2904 12.4984 8.36817 12.492C8.67907 12.4665 8.95305 12.6974 8.97989 13.0087C8.99118 13.1397 8.97989 13.6047 8.36118 14.0855C8.0793 14.3047 7.70278 14.5031 7.23434 14.68Z" fill="#62BEC1"/>
</svg>
