<svg width="20" height="20" viewBox="0 0 20 20" fill="none" xmlns="http://www.w3.org/2000/svg">
<path d="M9.38823 3.97843L7.11831 1.70852C5.63098 0.221183 3.19716 0.221183 1.70974 1.70852C0.222404 3.19586 0.222404 5.62972 1.70974 7.11709L3.97965 9.387C5.46699 10.8743 7.90081 10.8743 9.38823 9.387C10.8756 7.89959 10.8756 5.46577 9.38823 3.97843ZM5.50769 7.85893L3.23778 5.58901C2.58923 4.94046 2.58923 3.88515 3.23786 3.2366C3.88649 2.58805 4.94164 2.58805 5.59027 3.2366L7.86019 5.50651C8.50874 6.15507 8.50874 7.2103 7.86019 7.85893C7.21156 8.50744 6.15632 8.50748 5.50769 7.85893Z" fill="white"/>
<path d="M6.684 11.0942C5.50138 11.0942 4.39236 10.6365 3.56127 9.8054L1.2914 7.53557C-0.430467 5.81358 -0.430467 3.01195 1.2914 1.29008C2.12249 0.458992 3.23147 0.0012207 4.41408 0.0012207C5.5967 0.0012207 6.70572 0.458914 7.53681 1.29004L9.80668 3.55992C11.5285 5.28183 11.5285 8.08349 9.80668 9.8054C8.97555 10.6365 7.86653 11.0942 6.684 11.0942ZM4.41408 1.18469C3.5476 1.18469 2.73585 1.51934 2.12823 2.12692C0.867809 3.38734 0.867809 5.43819 2.12823 6.69866L4.39811 8.96853C5.00572 9.57614 5.81748 9.91075 6.684 9.91075C7.55048 9.91075 8.36223 9.57611 8.96985 8.96853C10.2303 7.7081 10.2303 5.65721 8.96985 4.39679L6.69997 2.12692C6.09236 1.51938 5.28049 1.18469 4.41408 1.18469ZM6.68392 8.93708C6.08107 8.93708 5.5147 8.70275 5.08928 8.27736L2.8194 6.00749C1.94015 5.12823 1.94015 3.69746 2.8194 2.81816C3.24491 2.39277 3.81127 2.15852 4.41408 2.15852C5.01693 2.15852 5.5833 2.39277 6.00873 2.8182L8.27864 5.08808C9.15785 5.96741 9.15785 7.39811 8.27864 8.27732C7.85313 8.70275 7.28681 8.93708 6.68392 8.93708ZM4.41408 3.34195C4.12733 3.34195 3.85819 3.45312 3.65624 3.65503C3.23842 4.07292 3.23842 4.75276 3.65631 5.17061L5.92619 7.44049C6.1281 7.6424 6.3972 7.75365 6.68396 7.75365C6.97071 7.75365 7.23989 7.6424 7.44181 7.44045C7.85969 7.02264 7.85962 6.34276 7.44181 5.92495L5.17182 3.65507C4.9699 3.45308 4.70076 3.34195 4.41408 3.34195Z" fill="#62BEC1"/>
<path d="M15.5858 19.9985C14.4549 19.9985 13.324 19.5681 12.4631 18.7072L10.1932 16.4373C8.47141 14.7154 8.47141 11.9137 10.1932 10.1918C11.9152 8.46992 14.7167 8.46992 16.4387 10.1918C16.6698 10.4229 16.6698 10.7976 16.4387 11.0287C16.2075 11.2597 15.833 11.2597 15.6018 11.0287C14.3413 9.76816 12.2903 9.76828 11.03 11.0287C9.76961 12.2891 9.76961 14.34 11.03 15.6004L13.2999 17.8703C14.5604 19.1308 16.6113 19.1309 17.8716 17.8703C19.1321 16.6099 19.1321 14.559 17.8716 13.2986C17.6406 13.0675 17.6406 12.6928 17.8716 12.4617C18.1029 12.2307 18.4774 12.2307 18.7086 12.4617C20.4304 14.1837 20.4304 16.9853 18.7086 18.7072C17.8476 19.568 16.7167 19.9985 15.5858 19.9985ZM15.5858 17.8385C15.0083 17.8385 14.4307 17.6187 13.9911 17.179L11.7212 14.9092C10.842 14.0299 10.842 12.5992 11.7213 11.7198C12.6006 10.8408 14.0312 10.8406 14.9106 11.7198C15.1417 11.9509 15.1417 12.3255 14.9106 12.5567C14.6796 12.7878 14.3049 12.7878 14.0738 12.5567C13.6559 12.1389 12.976 12.1389 12.5582 12.5567C12.1403 12.9746 12.1403 13.6546 12.5581 14.0723L14.828 16.3422C15.0299 16.5441 15.299 16.6554 15.5859 16.6554C15.8726 16.6554 16.1418 16.5441 16.3436 16.3422C16.7615 15.9243 16.7615 15.2445 16.3436 14.8267C16.1125 14.5956 16.1125 14.2209 16.3436 13.9898C16.5748 13.7588 16.9493 13.7588 17.1806 13.9898C18.0598 14.869 18.0598 16.2997 17.1806 17.179C16.7408 17.6187 16.1632 17.8385 15.5858 17.8385Z" fill="#62BEC1"/>
<path d="M12.1393 12.7301C11.9878 12.7301 11.8365 12.6723 11.7209 12.5568L7.44139 8.27726C7.21029 8.04617 7.21029 7.67148 7.44139 7.44035C7.67252 7.20934 8.04709 7.20934 8.2783 7.44035L12.5578 11.7198C12.7889 11.9509 12.7889 12.3256 12.5578 12.5568C12.4422 12.6723 12.2908 12.7301 12.1393 12.7301Z" fill="#62BEC1"/>
</svg>
