<svg width="30" height="30" viewBox="0 0 30 30" fill="none" xmlns="http://www.w3.org/2000/svg">
<path d="M24.6482 5.4231H5.35176C2.63705 5.4231 0.436386 7.62376 0.436386 10.3385V15.435C0.436386 18.1497 2.63705 20.3504 5.35176 20.3504H12.0498C12.1329 20.3504 12.2098 20.3947 12.2513 20.4667L14.4416 24.2605C14.685 24.682 15.2934 24.682 15.5368 24.2605L17.7271 20.4667C17.7687 20.3947 17.8455 20.3504 17.9287 20.3504H24.6481C27.3628 20.3504 29.5635 18.1497 29.5635 15.435V10.3385C29.5636 7.62376 27.3629 5.4231 24.6482 5.4231Z" fill="#FFE07D"/>
<path d="M26.5377 5.80005C26.7801 6.38177 26.9145 7.01985 26.9145 7.68946V12.786C26.9145 15.5007 24.7139 17.7014 21.9992 17.7014H2.70272C2.03311 17.7014 1.39502 17.567 0.813301 17.3245C1.55387 19.1012 3.3067 20.3505 5.3518 20.3505H12.0498C12.133 20.3505 12.2098 20.3948 12.2514 20.4668L14.4417 24.2606C14.6851 24.6821 15.2935 24.6821 15.5369 24.2606L17.7272 20.4668C17.7688 20.3948 17.8456 20.3505 17.9288 20.3505H24.6482C27.3629 20.3505 29.5636 18.1498 29.5636 15.4351V10.3385C29.5636 8.29345 28.3144 6.54056 26.5377 5.80005Z" fill="#FFD064"/>
<path d="M25.3686 12.2249C25.5033 12.3789 25.5033 12.6079 25.3686 12.762C24.7511 13.4684 22.9231 15.3247 20.7641 15.3247C18.6051 15.3247 16.777 13.4684 16.1595 12.762C16.0249 12.608 16.0249 12.3789 16.1595 12.2249C16.777 11.5184 18.6051 9.66211 20.7641 9.66211C22.9231 9.66211 24.7511 11.5185 25.3686 12.2249Z" fill="#F1F4F6"/>
<path d="M20.7641 13.7296C21.4468 13.7296 22.0003 13.1761 22.0003 12.4933C22.0003 11.8106 21.4468 11.2571 20.7641 11.2571C20.0813 11.2571 19.5278 11.8106 19.5278 12.4933C19.5278 13.1761 20.0813 13.7296 20.7641 13.7296Z" fill="#5766CB"/>
<path d="M5.35178 5.85963H19.1787C19.4198 5.85963 19.6151 5.66422 19.6151 5.42322C19.6151 5.18223 19.4198 4.98682 19.1787 4.98682H5.35178C2.40082 4.98682 0 7.38757 0 10.3386V15.4351C0 16.4188 0.269297 17.3806 0.778711 18.2166C0.904922 18.4242 1.17598 18.4864 1.37848 18.3621C1.58432 18.2367 1.64941 17.9682 1.52402 17.7623C1.09799 17.0633 0.872813 16.2585 0.872813 15.4351V10.3386C0.872813 7.86892 2.88205 5.85963 5.35178 5.85963Z" fill="black"/>
<path d="M24.6482 4.98682H21.443C21.2019 4.98682 21.0066 5.18223 21.0066 5.42322C21.0066 5.66428 21.2019 5.85963 21.443 5.85963H24.6482C27.1179 5.85963 29.1271 7.86887 29.1271 10.3386V15.4351C29.1271 17.9048 27.1179 19.914 24.6482 19.914H17.9288C17.6906 19.914 17.4685 20.0422 17.3493 20.2486L15.159 24.0424C15.1097 24.1276 15.0316 24.1403 14.9893 24.1403C14.947 24.1403 14.8689 24.1276 14.8197 24.0424L12.6293 20.2485C12.5101 20.0422 12.288 19.914 12.0498 19.914H5.35178C4.47586 19.914 3.62772 19.6614 2.89887 19.1833C2.69725 19.0512 2.42684 19.1073 2.29459 19.3089C2.1624 19.5104 2.2186 19.781 2.42016 19.9132C3.29162 20.4847 4.30535 20.7869 5.35178 20.7869H11.9323L14.0637 24.4788C14.2569 24.8134 14.6029 25.0132 14.9893 25.0132C15.3756 25.0132 15.7216 24.8134 15.9148 24.4788L18.0462 20.7869H24.6482C27.5991 20.7869 29.9999 18.386 29.9999 15.4351V10.3385C30 7.38758 27.5992 4.98682 24.6482 4.98682Z" fill="black"/>
<path d="M15.8309 11.9378C15.554 12.2546 15.554 12.7324 15.831 13.0492C16.5437 13.8646 18.4512 15.7612 20.764 15.7612C23.0769 15.7612 24.9844 13.8646 25.6971 13.0492C25.9741 12.7324 25.9741 12.2546 25.6972 11.9378C25.6971 11.9378 25.6971 11.9378 25.6971 11.9378C24.9844 11.1224 23.0768 9.22583 20.764 9.22583C18.4513 9.22583 16.5437 11.1223 15.8309 11.9378ZM20.764 10.0986C22.7524 10.0986 24.507 11.9065 25.0236 12.4935C24.507 13.0805 22.7525 14.8883 20.764 14.8883C18.7756 14.8883 17.0211 13.0805 16.5045 12.4935C17.0211 11.9065 18.7757 10.0986 20.764 10.0986Z" fill="black"/>
<path d="M7.16808 16.5418C7.40914 16.5418 7.60449 16.3464 7.60449 16.1054V8.18299C7.60449 7.94193 7.40914 7.74658 7.16808 7.74658H5.47478C5.23373 7.74658 5.03837 7.94199 5.03837 8.18299C5.03837 8.42399 5.23373 8.6194 5.47478 8.6194H6.73168V16.1054C6.73168 16.3464 6.92703 16.5418 7.16808 16.5418Z" fill="black"/>
<path d="M10.6539 9.02686C10.4128 9.02686 10.2175 9.22226 10.2175 9.46326V16.0964C10.2175 16.3374 10.4128 16.5328 10.6539 16.5328C10.8949 16.5328 11.0903 16.3374 11.0903 16.0964V13.4542L14.1545 16.4105C14.3278 16.5777 14.6041 16.573 14.7716 16.3994C14.9389 16.226 14.934 15.9496 14.7605 15.7823L11.5027 12.6393L14.5173 9.86826C14.6948 9.70513 14.7065 9.42904 14.5433 9.25156C14.3802 9.07408 14.1041 9.06248 13.9266 9.2256L11.0902 11.8327V9.4632C11.0903 9.22226 10.8949 9.02686 10.6539 9.02686Z" fill="black"/>
<path d="M19.5279 12.9299C19.769 12.9299 19.9643 12.7345 19.9643 12.4935C19.9643 12.0524 20.3231 11.6936 20.7641 11.6936C21.2052 11.6936 21.5639 12.0524 21.5639 12.4935C21.5639 12.8699 21.2973 13.1991 20.9298 13.2762C20.6939 13.3257 20.5428 13.5571 20.5923 13.793C20.6409 14.0305 20.8792 14.1806 21.1091 14.1305C21.8784 13.969 22.4368 13.2805 22.4368 12.4935C22.4368 11.5712 21.6865 10.8208 20.7641 10.8208C19.8418 10.8208 19.0915 11.5712 19.0915 12.4935C19.0915 12.7345 19.2869 12.9299 19.5279 12.9299Z" fill="black"/>
</svg>
