<svg width="20" height="20" viewBox="0 0 20 20" fill="none" xmlns="http://www.w3.org/2000/svg">
<path d="M2.92418 4.85381H0.994336C0.768242 4.85381 0.584961 4.67053 0.584961 4.44451V2.16369C0.584961 1.93768 0.768242 1.75439 0.994258 1.75439H19.0061C19.2321 1.75439 19.4154 1.93768 19.4154 2.16369V4.44447C19.4154 4.67057 19.2321 4.85377 19.0061 4.85377H6.43297H2.92418V4.85381Z" fill="#E8ECEF"/>
<path d="M19.0059 5.4387H0.994102C0.445977 5.4387 0 4.99272 0 4.44452V2.16382C0 1.61562 0.445977 1.16968 0.994102 1.16968H19.0059C19.554 1.16968 20 1.61565 20 2.16382V4.44452C20 4.99272 19.554 5.4387 19.0059 5.4387ZM1.16961 4.26909H18.8304V2.33925H1.16961V4.26909Z" fill="#62BEC1"/>
<path d="M2.9241 11.5496H0.994258C0.768164 11.5496 0.584961 11.3663 0.584961 11.1403V8.85949C0.584961 8.6334 0.768242 8.4502 0.994258 8.4502H19.0061C19.2321 8.4502 19.4153 8.63348 19.4153 8.85949V11.1403C19.4153 11.3664 19.2321 11.5496 19.0061 11.5496H6.43289H2.9241Z" fill="#E8ECEF"/>
<path d="M19.0059 12.1346H0.994102C0.445977 12.1346 0 11.6886 0 11.1404V8.85962C0 8.31142 0.445977 7.86548 0.994102 7.86548H19.0059C19.554 7.86548 20 8.31146 20 8.85962V11.1405C20 11.6886 19.554 12.1346 19.0059 12.1346ZM1.16961 10.965H18.8304V9.03513H1.16961V10.965Z" fill="#62BEC1"/>
<path d="M19.0059 18.8303H0.994102C0.445977 18.8303 0 18.3844 0 17.8362V15.5554C0 15.0072 0.445977 14.5613 0.994102 14.5613H13.5673C13.8902 14.5613 14.1521 14.8231 14.1521 15.1461C14.1521 15.4691 13.8903 15.7309 13.5673 15.7309H1.16961V17.6607H18.8304V15.7309H17.076C16.753 15.7309 16.4912 15.4691 16.4912 15.1461C16.4912 14.8231 16.753 14.5613 17.076 14.5613H19.0059C19.554 14.5613 20 15.0073 20 15.5554V17.8362C20 18.3844 19.554 18.8303 19.0059 18.8303Z" fill="#62BEC1"/>
</svg>
