<svg width="20" height="20" viewBox="0 0 20 20" fill="none" xmlns="http://www.w3.org/2000/svg">
<g clip-path="url(#clip0)">
<path d="M11.614 16.7927C10.7659 16.7927 9.91368 16.6627 9.08164 16.4006C6.94313 15.7268 5.195 14.2605 4.1593 12.2718C3.12356 10.2832 2.92434 8.01025 3.59809 5.8717C4.27192 3.73319 5.73821 1.98506 7.72688 0.949364C11.8321 -1.1886 16.9113 0.411708 19.0493 4.51693C19.21 4.82549 19.0901 5.20596 18.7816 5.36658C18.4731 5.52728 18.0926 5.40748 17.9319 5.09885C16.1148 1.60987 11.798 0.249638 8.30887 2.06678C6.61864 2.94706 5.37247 4.43279 4.79973 6.25037C4.227 8.06794 4.39637 9.99974 5.27664 11.6899C6.15692 13.3801 7.64266 14.6263 9.46024 15.199C11.2778 15.7717 13.2096 15.6024 14.8998 14.7221C16.6773 13.7964 17.9905 12.1533 18.5027 10.2142C18.6755 9.56009 18.7547 8.88669 18.7381 8.21275C18.7295 7.86498 19.0045 7.57607 19.3523 7.56744C19.7013 7.55982 19.9889 7.83384 19.9976 8.18162C20.0172 8.97458 19.9241 9.76661 19.7209 10.5359C19.1183 12.8172 17.5732 14.7503 15.4818 15.8395C14.2668 16.4721 12.9456 16.7926 11.614 16.7927Z" fill="#16425B"/>
<path d="M11.6045 12.734C14.0013 12.734 15.9443 10.791 15.9443 8.39424C15.9443 5.99744 14.0013 4.05444 11.6045 4.05444C9.20771 4.05444 7.26472 5.99744 7.26472 8.39424C7.26472 10.791 9.20771 12.734 11.6045 12.734Z" fill="white"/>
<path d="M11.6042 13.3642C8.86387 13.3642 6.63446 11.1348 6.63446 8.39452C6.63446 5.65421 8.86391 3.4248 11.6042 3.4248C14.3444 3.4248 16.5739 5.65421 16.5739 8.39452C16.5739 11.1349 14.3445 13.3642 11.6042 13.3642ZM11.6042 4.68472C9.55856 4.68472 7.8943 6.34898 7.8943 8.3946C7.8943 10.4402 9.55852 12.1045 11.6042 12.1045C13.6498 12.1045 15.314 10.4403 15.314 8.3946C15.314 6.34894 13.6498 4.68472 11.6042 4.68472Z" fill="#16425B"/>
<path d="M2.20811 19.9988C1.62448 19.9988 1.06229 19.7675 0.646784 19.3521C0.196707 18.9019 -0.0372772 18.2795 0.00487119 17.6444C0.0470195 17.0092 0.361238 16.4232 0.866862 16.0365L3.44779 14.0629C3.69861 13.8711 4.05264 13.8946 4.27588 14.1178L5.88099 15.7229C6.10423 15.9462 6.12775 16.3003 5.93591 16.551L3.96229 19.1319C3.57557 19.6376 2.98955 19.9518 2.3544 19.9939C2.30561 19.9972 2.25674 19.9988 2.20811 19.9988ZM3.77498 15.3986L1.63217 17.0372C1.41174 17.2057 1.28038 17.451 1.26198 17.7277C1.24358 18.0045 1.34147 18.265 1.53764 18.4612C1.73381 18.6573 1.99409 18.7552 2.27108 18.7368C2.54787 18.7184 2.79311 18.587 2.96155 18.3667L4.60021 16.2238L3.77498 15.3986Z" fill="#16425B"/>
</g>
<defs>
<clipPath id="clip0">
<rect width="20" height="20" fill="white"/>
</clipPath>
</defs>
</svg>
