<svg width="30" height="30" viewBox="0 0 30 30" fill="none" xmlns="http://www.w3.org/2000/svg">
<g clip-path="url(#clip0)">
<path d="M22.1486 22.4173C26.2451 22.4173 29.566 19.0964 29.566 14.9999C29.566 10.9034 26.2451 7.58252 22.1486 7.58252C18.0521 7.58252 14.7312 10.9034 14.7312 14.9999C14.7312 19.0964 18.0521 22.4173 22.1486 22.4173Z" fill="#FFE07D"/>
<path d="M26.1911 8.78052C26.9485 9.94343 27.389 11.3317 27.389 12.823C27.389 16.9195 24.0681 20.2404 19.9716 20.2404C18.4803 20.2404 17.092 19.7999 15.9291 19.0424C17.2523 21.0739 19.5434 22.4173 22.1485 22.4173C26.245 22.4173 29.5659 19.0964 29.5659 14.9999C29.5659 12.3948 28.2226 10.1037 26.1911 8.78052Z" fill="#FFD064"/>
<path d="M22.1486 16.4258C21.017 16.4258 19.8892 16.3734 18.861 16.2996C18.7414 16.291 18.6408 16.3917 18.6537 16.5109C18.8451 18.272 20.3365 19.6429 22.1486 19.6429C23.9606 19.6429 25.452 18.272 25.6434 16.5109C25.6563 16.3917 25.5557 16.291 25.4361 16.2996C24.4079 16.3735 23.2801 16.4258 22.1486 16.4258Z" fill="#524798"/>
<path d="M9.28951 22.4173C13.386 22.4173 16.7069 19.0964 16.7069 14.9999C16.7069 10.9034 13.386 7.58252 9.28951 7.58252C5.193 7.58252 1.87212 10.9034 1.87212 14.9999C1.87212 19.0964 5.193 22.4173 9.28951 22.4173Z" fill="#FFE07D"/>
<path d="M13.332 8.78052C14.0894 9.94343 14.5299 11.3317 14.5299 12.823C14.5299 16.9195 11.209 20.2404 7.11248 20.2404C5.62115 20.2404 4.23289 19.7999 3.06998 19.0424C4.39314 21.0739 6.68428 22.4173 9.28942 22.4173C13.3859 22.4173 16.7068 19.0964 16.7068 14.9999C16.7068 12.3948 15.3635 10.1037 13.332 8.78052Z" fill="#FFD064"/>
<path d="M3.35491 20.3921C2.68677 21.0603 1.60343 21.0603 0.935282 20.3921C0.267137 19.724 0.267137 18.6406 0.935282 17.9725C1.4287 17.4791 3.31612 16.9112 4.26956 16.6479C4.51911 16.579 4.74839 16.8083 4.67948 17.0578C4.41616 18.0113 3.84833 19.8987 3.35491 20.3921Z" fill="#D3EFFB"/>
<path d="M17.6438 17.9725C18.312 18.6406 18.312 19.724 17.6438 20.3921C16.9757 21.0603 15.8924 21.0603 15.2242 20.3921C14.7308 19.8987 14.1629 18.0113 13.8997 17.0578C13.8307 16.8083 14.06 16.579 14.3096 16.6479C15.2631 16.9112 17.1504 17.4791 17.6438 17.9725Z" fill="#D3EFFB"/>
<path d="M4.26948 16.6479C4.05643 16.7067 3.79657 16.7809 3.5162 16.8659C3.24789 17.8322 2.68996 19.6696 2.20405 20.1555C1.93416 20.4254 1.59637 20.5843 1.24574 20.6362C1.90557 21.0449 2.78231 20.9646 3.35489 20.3921C3.84831 19.8986 4.41614 18.0112 4.67946 17.0578C4.74825 16.8083 4.51903 16.579 4.26948 16.6479Z" fill="#B1E4F9"/>
<path d="M17.6437 17.9724C17.3792 17.7079 16.7141 17.422 16.007 17.1731C16.1966 17.2739 16.35 17.3748 16.4479 17.4727C17.1161 18.1408 17.1161 19.2242 16.4479 19.8923C16.1105 20.2298 15.6673 20.3962 15.225 20.3928C15.8933 21.0601 16.9759 21.0598 17.6437 20.392C18.3119 19.7239 18.3119 18.6405 17.6437 17.9724Z" fill="#B1E4F9"/>
<path d="M9.28955 16.4258C8.15799 16.4258 7.03023 16.3734 6.00197 16.2996C5.88238 16.291 5.78178 16.3917 5.79473 16.5109C5.98609 18.272 7.47748 19.6429 9.28955 19.6429C11.1016 19.6429 12.593 18.272 12.7844 16.5109C12.7973 16.3917 12.6967 16.291 12.5771 16.2996C11.5489 16.3735 10.4211 16.4258 9.28955 16.4258Z" fill="#524798"/>
<path d="M25.4362 16.2996C24.927 16.3361 24.3933 16.3674 23.8469 16.3897C23.5992 17.9598 22.3128 19.1845 20.7132 19.3374C21.1515 19.5337 21.6372 19.6429 22.1486 19.6429C23.9607 19.6429 25.4521 18.2721 25.6434 16.5109C25.6564 16.3917 25.5558 16.291 25.4362 16.2996Z" fill="#453D81"/>
<path d="M12.5771 16.2996C12.0679 16.3361 11.5342 16.3674 10.9878 16.3897C10.7401 17.9598 9.45374 19.1845 7.85413 19.3374C8.29241 19.5337 8.77815 19.6429 9.2895 19.6429C11.1016 19.6429 12.593 18.2721 12.7843 16.5109C12.7973 16.3917 12.6967 16.291 12.5771 16.2996Z" fill="#453D81"/>
<path d="M20.5019 11.4099C20.0293 11.3515 19.6037 11.5754 19.3706 11.9356C19.3475 11.9714 19.2959 11.9714 19.2728 11.9356C19.0398 11.5754 18.6141 11.3514 18.1415 11.4099C17.6107 11.4755 17.186 11.9076 17.1285 12.4395C17.0741 12.9423 17.3388 13.3897 17.7455 13.6044C18.0184 13.7484 18.2795 13.9135 18.5104 14.1181L18.6396 14.2327C18.8591 14.4273 19.0576 14.6444 19.2318 14.8804C19.2765 14.941 19.367 14.941 19.4116 14.8804C19.5858 14.6444 19.7842 14.4273 20.0038 14.2327L20.133 14.1181C20.3639 13.9135 20.6251 13.7484 20.8979 13.6043C21.3046 13.3896 21.5694 12.9422 21.5149 12.4394C21.4574 11.9076 21.0328 11.4755 20.5019 11.4099Z" fill="#DD636E"/>
<path d="M26.1555 11.4099C25.6828 11.3515 25.2572 11.5754 25.0242 11.9356C25.001 11.9714 24.9495 11.9714 24.9264 11.9356C24.6934 11.5754 24.2677 11.3514 23.7951 11.4099C23.2642 11.4755 22.8396 11.9076 22.782 12.4395C22.7277 12.9423 22.9924 13.3897 23.399 13.6044C23.6719 13.7484 23.9331 13.9135 24.164 14.1181L24.2932 14.2327C24.5127 14.4273 24.7111 14.6444 24.8853 14.8804C24.93 14.941 25.0206 14.941 25.0652 14.8804C25.2393 14.6444 25.4378 14.4273 25.6573 14.2327L25.7865 14.1181C26.0174 13.9135 26.2787 13.7484 26.5515 13.6043C26.9581 13.3896 27.2229 12.9422 27.1685 12.4394C27.111 11.9076 26.6864 11.4755 26.1555 11.4099Z" fill="#DD636E"/>
<path d="M20.4183 11.4025C20.3384 11.3982 20.2603 11.4025 20.1844 11.4135C20.4539 11.6219 20.6322 11.9437 20.6427 12.3035C20.656 12.7633 20.4038 13.1655 20.0281 13.3681C19.743 13.5219 19.4692 13.6961 19.2268 13.911L19.1249 14.0012C18.9998 14.1121 18.8825 14.2311 18.7716 14.356C18.9391 14.5179 19.0935 14.6929 19.2319 14.8805C19.2766 14.9411 19.3671 14.9411 19.4117 14.8805C19.5859 14.6445 19.7843 14.4274 20.0038 14.2328L20.1057 14.1425C20.3481 13.9276 20.6219 13.7534 20.9071 13.5996C21.2828 13.397 21.5349 12.9948 21.5216 12.535C21.5041 11.9333 21.0194 11.4352 20.4183 11.4025Z" fill="#D82E3D"/>
<path d="M26.3227 11.4453C26.154 11.3964 25.9915 11.3913 25.8378 11.4135C26.1074 11.6219 26.2856 11.9437 26.2961 12.3036C26.3095 12.7633 26.0573 13.1655 25.6816 13.3681C25.3964 13.522 25.1226 13.6961 24.8802 13.911L24.7783 14.0013C24.6532 14.1121 24.5359 14.2311 24.425 14.356C24.5925 14.5179 24.7469 14.6929 24.8853 14.8805C24.93 14.9411 25.0206 14.9411 25.0652 14.8805C25.2394 14.6445 25.4378 14.4274 25.6573 14.2328L25.673 14.2189C25.9374 13.9845 26.2231 13.7724 26.5377 13.6116C26.9263 13.413 27.1892 13.0033 27.175 12.5337C27.1598 12.0281 26.8085 11.5864 26.3227 11.4453Z" fill="#D82E3D"/>
<path d="M22.1486 7.1485C20.1288 7.1485 18.2099 7.91379 16.7453 9.30346C16.5714 9.46846 16.5641 9.7432 16.7292 9.91711C16.8942 10.0911 17.169 10.0983 17.3428 9.93322C18.6454 8.6973 20.3521 8.01668 22.1486 8.01668C25.9992 8.01668 29.1318 11.1493 29.1318 14.9999C29.1318 18.8505 25.9992 21.9832 22.1486 21.9832C20.6612 21.9832 19.2086 21.5045 18.0159 20.629C18.263 20.359 18.4378 20.0317 18.5216 19.6756C18.5766 19.4422 18.432 19.2085 18.1986 19.1536C17.9655 19.0984 17.7316 19.2432 17.6766 19.4766C17.6224 19.7065 17.5049 19.917 17.3368 20.0851C17.0957 20.3262 16.775 20.4591 16.434 20.4591C16.0929 20.4591 15.7723 20.3262 15.5311 20.0851C15.3073 19.8612 14.8866 18.9631 14.366 17.1142C15.7982 17.5181 16.8752 17.9278 17.2649 18.2187C17.457 18.3622 17.7291 18.3226 17.8724 18.1306C18.0159 17.9385 17.9764 17.6665 17.7843 17.523C17.5669 17.3607 17.2467 17.1974 16.8729 17.0397C17.0506 16.3771 17.141 15.6923 17.141 14.9999C17.141 14.4956 17.0926 14.0024 17.0013 13.5244C17.1414 13.7133 17.3244 13.8729 17.5428 13.9883C18.12 14.2956 18.504 14.6474 18.8824 15.1381C18.9848 15.2769 19.149 15.3598 19.3215 15.3599H19.3217C19.4942 15.3599 19.6584 15.2771 19.761 15.1382C20.1398 14.6471 20.5231 14.2959 21.1007 13.9883C21.6859 13.6792 22.0179 13.053 21.9465 12.3928C21.8677 11.6635 21.2824 11.069 20.5551 10.9791H20.5552C20.0998 10.923 19.6576 11.0577 19.3217 11.3409C18.9857 11.0577 18.5434 10.9229 18.0882 10.9791C17.3609 11.069 16.7757 11.6636 16.6969 12.3928C16.6968 12.3939 16.6968 12.3952 16.6966 12.3963C15.6202 9.34289 12.7065 7.14844 9.28945 7.14844C7.07514 7.14844 4.95264 8.09074 3.46605 9.73359C3.30521 9.91137 3.31893 10.1859 3.4967 10.3467C3.67447 10.5076 3.94898 10.4938 4.10982 10.3161C5.43211 8.85469 7.32 8.01662 9.28945 8.01662C13.1401 8.01662 16.2728 11.1493 16.2728 14.9999C16.2728 15.5867 16.1994 16.167 16.0559 16.7298C15.5126 16.5417 14.935 16.3702 14.425 16.2294C14.1592 16.156 13.873 16.2315 13.6781 16.4264C13.4831 16.6213 13.4077 16.9075 13.4811 17.1732C13.793 18.3029 14.089 19.1787 14.3663 19.7943C13.0499 21.1871 11.2085 21.9832 9.28939 21.9832C7.37162 21.9832 5.52861 21.1866 4.21254 19.7941C4.48986 19.1785 4.78582 18.3028 5.09771 17.1732C5.17107 16.9075 5.09561 16.6213 4.90072 16.4264C4.70578 16.2315 4.41973 16.156 4.15383 16.2294C3.53303 16.4008 2.98939 16.5673 2.52293 16.7287C2.37973 16.1664 2.30607 15.5867 2.30607 14.9999C2.30607 13.8742 2.56553 12.7999 3.07723 11.8066C3.18703 11.5935 3.10324 11.3317 2.89014 11.222C2.67697 11.1121 2.41523 11.1959 2.30543 11.4091C1.73801 12.5108 1.43801 13.7524 1.43801 14.9999C1.43801 15.6925 1.52848 16.3768 1.70613 17.0391C1.18535 17.2597 0.824766 17.4689 0.628301 17.6654C0.223125 18.0706 0 18.6093 0 19.1822C0 19.7552 0.223125 20.2939 0.628242 20.6989C1.03342 21.1041 1.57207 21.3273 2.145 21.3273C2.71793 21.3273 3.25664 21.1042 3.66176 20.6989C3.69621 20.6645 3.73107 20.6245 3.76635 20.5799C5.23102 22.0281 7.22168 22.8514 9.28945 22.8514C11.3587 22.8514 13.3477 22.0284 14.8125 20.5799C14.8478 20.6244 14.8826 20.6644 14.9171 20.6989C15.3223 21.1041 15.861 21.3273 16.4339 21.3273C16.7279 21.3273 17.0128 21.2681 17.2754 21.1562C18.6568 22.2504 20.381 22.8514 22.1486 22.8514C26.4778 22.8514 30 19.3293 30 14.9999C30 10.6706 26.4778 7.1485 22.1486 7.1485ZM17.5601 12.4862C17.5976 12.1205 17.9219 11.8304 18.289 11.8349C18.5395 11.8349 18.7711 11.9589 18.9084 12.1716C18.9994 12.3128 19.1538 12.3971 19.3215 12.3973H19.3218C19.4894 12.3972 19.6438 12.3131 19.7348 12.172C19.8895 11.9323 20.1635 11.8058 20.4486 11.8407H20.4487C20.7804 11.8818 21.0474 12.1532 21.0835 12.4862C21.1164 12.7904 20.9641 13.0787 20.6954 13.2205C20.2908 13.4331 20.0055 13.641 19.716 13.9079C19.577 14.0311 19.4452 14.163 19.3218 14.3023C19.1984 14.163 19.0667 14.0311 18.9277 13.9078C18.6381 13.641 18.353 13.4332 17.9483 13.2205C17.6795 13.0787 17.5271 12.7904 17.5601 12.4862ZM2.145 20.4591C1.80393 20.4591 1.4833 20.3263 1.24213 20.0851C1.00096 19.8439 0.868125 19.5233 0.868125 19.1822C0.868125 18.8412 1.00096 18.5205 1.24213 18.2794C1.4659 18.0557 2.36385 17.635 4.21295 17.1143C3.69229 18.9633 3.27158 19.8613 3.04781 20.0851C2.8067 20.3263 2.48607 20.4591 2.145 20.4591Z" fill="black"/>
<path d="M18.8921 15.8666C18.7058 15.8525 18.5237 15.9228 18.3936 16.0576C18.2647 16.1913 18.2023 16.3735 18.2222 16.5577C18.4403 18.564 20.1283 20.0769 22.1487 20.0769C24.1691 20.0769 25.8571 18.564 26.075 16.5576C26.095 16.3735 26.0326 16.1913 25.9036 16.0575C25.7736 15.9227 25.5916 15.8524 25.4052 15.8665C24.2497 15.9495 23.1541 15.9916 22.1487 15.9916C21.1432 15.9917 20.0476 15.9496 18.8921 15.8666ZM22.1487 19.2088C20.6711 19.2088 19.4214 18.172 19.1306 16.7533C20.1964 16.824 21.2103 16.8598 22.1487 16.8598C23.0869 16.8598 24.1008 16.824 25.1667 16.7533C24.876 18.172 23.6263 19.2088 22.1487 19.2088Z" fill="black"/>
<path d="M6.56802 13.6714C6.68344 13.504 6.87335 13.404 7.07602 13.404C7.2787 13.404 7.4686 13.5039 7.58403 13.6714C7.66823 13.7935 7.80382 13.8591 7.9418 13.8591C8.02676 13.8591 8.1126 13.8342 8.18784 13.7824C8.38524 13.6462 8.43487 13.3759 8.29882 13.1785C8.02137 12.7762 7.56428 12.5359 7.07608 12.5359C6.588 12.5359 6.13091 12.7761 5.85335 13.1785C5.71723 13.3759 5.76692 13.6462 5.96427 13.7823C6.16155 13.9184 6.4319 13.8687 6.56802 13.6714Z" fill="black"/>
<path d="M10.995 13.6714C11.1104 13.504 11.3003 13.404 11.503 13.404C11.7057 13.404 11.8956 13.5039 12.011 13.6714C12.0952 13.7935 12.2308 13.8591 12.3688 13.8591C12.4537 13.8591 12.5396 13.8342 12.6148 13.7824C12.8122 13.6462 12.8618 13.3759 12.7258 13.1785C12.4483 12.7762 11.9912 12.5359 11.503 12.5359C11.015 12.5359 10.5579 12.7761 10.2803 13.1785C10.1442 13.3759 10.1939 13.6462 10.3912 13.7823C10.5885 13.9184 10.8588 13.8687 10.995 13.6714Z" fill="black"/>
<path d="M5.36301 16.5577C5.58098 18.564 7.269 20.0769 9.28937 20.0769C11.3097 20.0769 12.9978 18.5639 13.2157 16.5576C13.2357 16.3735 13.1733 16.1912 13.0444 16.0575C12.9143 15.9227 12.7326 15.8526 12.5458 15.8665C11.3904 15.9495 10.2948 15.9916 9.28937 15.9916C8.28396 15.9916 7.18832 15.9495 6.03291 15.8665C5.84588 15.8525 5.66441 15.9228 5.53439 16.0575C5.40549 16.1913 5.34297 16.3736 5.36301 16.5577ZM9.28937 16.8598C10.2277 16.8598 11.2415 16.8239 12.3074 16.7533C12.0167 18.1719 10.767 19.2087 9.28937 19.2087C7.81176 19.2087 6.56207 18.172 6.27133 16.7533C7.33721 16.824 8.35111 16.8598 9.28937 16.8598Z" fill="black"/>
<path d="M24.9752 11.3409C24.6392 11.0577 24.1969 10.9229 23.7418 10.9791C23.0144 11.069 22.4293 11.6636 22.3505 12.3928C22.279 13.053 22.6111 13.6792 23.1963 13.9883C23.7735 14.2958 24.1575 14.6474 24.5359 15.1381C24.6384 15.2769 24.8026 15.3598 24.9751 15.3599H24.9752C25.1477 15.3599 25.3119 15.2771 25.4145 15.1382C25.7933 14.6471 26.1766 14.2959 26.7542 13.9883C27.3394 13.6792 27.6715 13.053 27.6001 12.3928C27.5212 11.6635 26.936 11.069 26.2086 10.9791H26.2087C25.7533 10.923 25.3112 11.0577 24.9752 11.3409ZM26.737 12.4862C26.7698 12.7904 26.6176 13.0787 26.3488 13.2205C25.9443 13.4331 25.659 13.641 25.3694 13.9079C25.2305 14.0311 25.0986 14.1629 24.9753 14.3022C24.852 14.163 24.7202 14.0312 24.5812 13.9078C24.2916 13.641 24.0064 13.4332 23.6018 13.2205C23.3331 13.0787 23.1807 12.7904 23.2137 12.4861C23.2513 12.1205 23.5756 11.8304 23.9427 11.8349C24.1931 11.8349 24.4247 11.9589 24.5623 12.1719C24.6534 12.313 24.8077 12.3972 24.9754 12.3972C25.143 12.3972 25.2974 12.313 25.3884 12.172C25.5431 11.9323 25.8171 11.8057 26.1022 11.8407H26.1023C26.434 11.8818 26.7009 12.1532 26.737 12.4862Z" fill="black"/>
</g>
<defs>
<clipPath id="clip0">
<rect width="30" height="30" fill="white"/>
</clipPath>
</defs>
</svg>
