<svg width="20" height="20" viewBox="0 0 20 20" fill="none" xmlns="http://www.w3.org/2000/svg">
<path d="M16.8931 20H15.4179C15.1046 20 14.8506 19.746 14.8506 19.4327C14.8506 19.1194 15.1046 18.8654 15.4179 18.8654H16.8931C17.9806 18.8654 18.8654 17.9806 18.8654 16.8931V3.10688C18.8654 2.01941 17.9806 1.13461 16.8931 1.13461H8.3737C8.06038 1.13461 7.8064 0.880625 7.8064 0.567305C7.8064 0.253984 8.06038 0 8.3737 0H16.8931C18.6063 0 20 1.39371 20 3.10688V16.8931C20 18.6063 18.6063 20 16.8931 20Z" fill="#16425B"/>
<path d="M11.3161 20H3.10688C1.39371 20 0 18.6063 0 16.8931V3.10688C0 1.39371 1.39371 0 3.10688 0H4.38359C4.69691 0 4.9509 0.253984 4.9509 0.567305C4.9509 0.880625 4.69691 1.13461 4.38359 1.13461H3.10688C2.01941 1.13461 1.13461 2.01938 1.13461 3.10688V16.8931C1.13461 17.9806 2.01938 18.8654 3.10688 18.8654H11.3161C11.6295 18.8654 11.8834 19.1194 11.8834 19.4327C11.8834 19.746 11.6295 20 11.3161 20Z" fill="#16425B"/>
<path d="M15.7206 6.60865L14.2529 6.04951C13.9419 5.35349 13.4347 4.85584 12.7341 4.69302C10.6843 4.21666 9.60306 6.13962 9.82329 7.50783C9.85439 7.70087 9.90673 7.88525 9.97782 8.05892C9.79442 8.08087 7.11743 8.35919 4.81638 6.58611C4.63493 6.44634 4.37138 6.54986 4.32618 6.77447C4.19985 7.40146 4.23235 8.54255 5.7104 9.47295C5.7104 9.47295 5.41739 9.50822 5.05255 9.45052C4.81966 9.41369 4.63216 9.63517 4.70892 9.85814C4.91587 10.4591 5.47099 11.3676 6.94349 11.4713C6.94349 11.4713 6.72935 11.5944 6.34106 11.6572C6.10767 11.6949 6.00083 11.9718 6.14966 12.1556C6.50087 12.5892 7.20032 13.1573 8.41442 13.0575C8.41442 13.0575 8.50099 14.0628 4.94196 14.6836C4.94181 14.6836 6.7304 15.3811 8.87575 15.3811C14.8267 15.3811 14.8295 10.4065 14.6027 7.51869L15.7206 6.60865Z" fill="#E8ECEF"/>
<path d="M8.87568 15.9484C7.71115 15.9484 6.65279 15.75 5.96998 15.5835C5.5833 15.4893 5.27228 15.3948 5.07951 15.3321C4.68822 15.205 4.40549 15.1131 4.37623 14.7265C4.35412 14.4353 4.55674 14.1749 4.84443 14.1247C5.99142 13.9247 6.70623 13.6923 7.14963 13.4899C6.58275 13.3134 6.08814 12.9811 5.70877 12.5127C5.5206 12.2802 5.46494 11.9654 5.5599 11.683C4.71881 11.25 4.33912 10.5268 4.17244 10.043C4.08021 9.77496 4.12299 9.47769 4.28697 9.24781C4.32459 9.19512 4.36752 9.14727 4.41474 9.1048C3.60564 8.13551 3.67662 7.12582 3.77002 6.66246C3.85256 6.25273 4.21502 5.95543 4.63189 5.95543C4.82506 5.95543 5.00857 6.01812 5.1626 6.13687C6.65197 7.28449 8.31474 7.50137 9.25158 7.51906C9.13861 6.65895 9.42318 5.7127 10.0041 5.03078C10.542 4.39949 11.2913 4.05176 12.114 4.05176C12.357 4.05176 12.6088 4.08164 12.8625 4.14059C13.6378 4.32078 14.2569 4.82316 14.6648 5.59949L15.9226 6.07871C16.112 6.15086 16.2485 6.31863 16.2807 6.51867C16.3128 6.71875 16.2359 6.9209 16.0786 7.04883L15.1899 7.77215C15.3339 9.89496 15.2441 12.463 13.6403 14.1977C12.5664 15.3593 10.9633 15.9484 8.87568 15.9484ZM7.23416 14.68C7.73287 14.7585 8.29146 14.8138 8.87572 14.8138C10.6341 14.8138 11.9569 14.3473 12.8074 13.4273C14.1883 11.9337 14.19 9.50875 14.0372 7.56305C14.0226 7.37731 14.1001 7.19621 14.2446 7.07863L14.6005 6.78895L14.051 6.57961C13.9102 6.52594 13.7965 6.41848 13.7351 6.28094C13.4793 5.70863 13.0993 5.36031 12.6058 5.24559C12.4361 5.20617 12.2708 5.18617 12.1141 5.18617C11.4926 5.18617 11.0934 5.50172 10.8679 5.76641C10.4845 6.21641 10.2944 6.86449 10.3834 7.41766C10.407 7.56465 10.4472 7.70813 10.5029 7.84398C10.57 8.00793 10.5567 8.19379 10.4669 8.34645C10.377 8.4991 10.2211 8.60109 10.0452 8.62215C9.98138 8.6298 9.74498 8.65473 9.38373 8.65473C8.40541 8.65473 6.5726 8.47227 4.84802 7.3082C4.86943 7.82082 5.13185 8.4384 6.01256 8.99277C6.21584 9.12074 6.3165 9.36281 6.26388 9.59723C6.21123 9.83164 6.0167 10.0074 5.77814 10.0361C5.75771 10.0385 5.6472 10.0509 5.48111 10.0509C5.46025 10.0509 5.43943 10.0507 5.41861 10.0503C5.7274 10.5667 6.25189 10.8538 6.98338 10.9053C7.23236 10.9229 7.44064 11.101 7.49646 11.3443C7.55228 11.5876 7.44256 11.8387 7.22615 11.9631C7.1958 11.9805 7.0847 12.0409 6.90064 12.1027C7.18099 12.3204 7.5817 12.5016 8.1383 12.5016C8.21291 12.5016 8.29021 12.4984 8.36799 12.492C8.67888 12.4665 8.95287 12.6974 8.9797 13.0087C8.99099 13.1397 8.9797 13.6047 8.36099 14.0855C8.07912 14.3047 7.70259 14.5031 7.23416 14.68Z" fill="#16425B"/>
</svg>
