<svg width="20" height="20" viewBox="0 0 20 20" fill="none" xmlns="http://www.w3.org/2000/svg">
<path d="M16.8931 20H15.4179C15.1046 20 14.8506 19.746 14.8506 19.4327C14.8506 19.1194 15.1046 18.8654 15.4179 18.8654H16.8931C17.9806 18.8654 18.8654 17.9806 18.8654 16.8931V3.10688C18.8654 2.01941 17.9806 1.13461 16.8931 1.13461H8.3737C8.06038 1.13461 7.8064 0.880625 7.8064 0.567305C7.8064 0.253984 8.06038 0 8.3737 0H16.8931C18.6063 0 20 1.39371 20 3.10688V16.8931C20 18.6063 18.6063 20 16.8931 20Z" fill="#16425B"/>
<path d="M11.3161 20H3.10688C1.39371 20 0 18.6063 0 16.8931V3.10688C0 1.39371 1.39371 0 3.10688 0H4.38359C4.69691 0 4.9509 0.253984 4.9509 0.567305C4.9509 0.880625 4.69691 1.13461 4.38359 1.13461H3.10688C2.01941 1.13461 1.13461 2.01938 1.13461 3.10688V16.8931C1.13461 17.9806 2.01938 18.8654 3.10688 18.8654H11.3161C11.6295 18.8654 11.8834 19.1194 11.8834 19.4327C11.8834 19.746 11.6295 20 11.3161 20Z" fill="#16425B"/>
<path d="M15.5115 4.71447L3.94552 9.2217C3.57079 9.36771 3.5936 9.90529 3.97927 10.019L6.62118 10.7991L7.44235 13.8739C7.55688 14.2375 8.01755 14.3476 8.28423 14.0753L9.91012 12.5237L13.3583 15.2058C13.7232 15.4736 14.2428 15.2745 14.3354 14.8316L16.3101 5.3906C16.4068 4.9281 15.9518 4.54287 15.5115 4.71447Z" fill="#E8ECEF"/>
<path d="M13.7245 15.8943H13.7245C13.4713 15.8943 13.2285 15.8144 13.0226 15.6633C13.0183 15.6601 13.0141 15.657 13.01 15.6537L9.94793 13.2719L8.68152 14.4805C8.47899 14.6832 8.21094 14.7946 7.92543 14.7946C7.45418 14.7946 7.04258 14.4932 6.90125 14.0445C6.89875 14.0365 6.89637 14.0285 6.89422 14.0204L6.15524 11.2532L3.81859 10.5633C3.40668 10.4417 3.12863 10.0858 3.11047 9.65665C3.09227 9.22743 3.33922 8.84927 3.73957 8.69325L15.3056 4.18603C15.4424 4.13271 15.5849 4.10571 15.7294 4.10571C16.0796 4.10571 16.4083 4.26313 16.6313 4.53759C16.8521 4.80927 16.9374 5.16259 16.8654 5.50688L14.8906 14.9479C14.7759 15.4963 14.2855 15.8943 13.7245 15.8943ZM13.6973 14.751C13.7065 14.757 13.7149 14.7597 13.7245 14.7597C13.7293 14.7597 13.7711 14.7585 13.7801 14.7156L15.7548 5.27458C15.757 5.26395 15.7562 5.2597 15.7507 5.25302C15.7448 5.24575 15.7356 5.24024 15.7293 5.24024C15.7265 5.24024 15.7223 5.24126 15.7175 5.24313L4.5484 9.59567L6.78172 10.2551C6.97133 10.3111 7.11813 10.4618 7.16918 10.6529L7.95711 13.6033L9.51836 12.1134C9.72168 11.9193 10.0365 11.9034 10.2583 12.076L13.6973 14.751Z" fill="#16425B"/>
<path d="M8.58116 14.0705C8.59897 14.1282 9.24893 13.3157 9.25584 13.2556L8.96432 11.8284C8.92592 11.6404 8.99405 11.4466 9.14159 11.3239L14.4853 6.88354C14.6139 6.76975 14.4645 6.56909 14.3187 6.65944L8.03479 10.4921C7.8858 10.583 7.80893 10.7567 7.84186 10.9281L8.58116 14.0705Z" fill="#16425B"/>
</svg>
