<svg width="20" height="20" viewBox="0 0 20 20" fill="none" xmlns="http://www.w3.org/2000/svg">
<g clip-path="url(#clip0)">
<path d="M8.97043 4.85618L8.10508 7.16148L9.27473 8.49221L9.58601 8.78178C10.0841 9.24506 10.407 9.86599 10.5001 10.5398C10.5817 11.1292 10.4833 11.7296 10.2178 12.2621L10.0687 12.5614L10.6305 13.5616L11.0902 15.4765C11.1677 15.7996 10.8071 16.0488 10.5323 15.8621L8.01884 14.1545L5.03627 13.7953C4.90667 13.7797 5.12479 13.2037 5.30561 12.739C5.44053 12.3922 5.47334 12.0143 5.40037 11.6495L5.14463 10.3709C5.15694 10.2839 5.2003 10.2042 5.26674 10.1467L7.12415 8.53951L6.45634 7.05308C6.45634 7.05308 5.21987 6.74234 5.03057 6.76851C4.93296 6.78202 4.41296 6.49847 3.93359 6.22156C3.393 5.90922 3.02652 5.36527 2.94097 4.7468L2.65953 4.08614C4.11343 2.2808 6.2315 1.00511 8.7086 0.662451C8.76981 0.653975 8.8311 0.646084 8.89199 0.639404L9.64008 1.68315C9.93089 2.08885 10.0614 2.58787 10.0065 3.084L9.88894 4.14579C9.85996 4.40798 9.09688 4.62473 8.97043 4.85618Z" fill="#E8ECEF"/>
<path d="M19.9035 8.62992C19.4663 5.46911 17.5532 2.72108 14.7577 1.20582C14.7378 1.19336 14.7175 1.18183 14.6965 1.17207C14.6054 1.12348 14.5132 1.07617 14.4202 1.03019C12.6239 0.143207 10.6216 -0.180033 8.62961 0.0955515C8.5566 0.105669 8.48391 0.116997 8.41137 0.128676C8.40508 0.129692 8.39871 0.130512 8.39242 0.131528C8.32672 0.142153 8.26145 0.153911 8.19614 0.165785C8.18098 0.16852 8.16571 0.171098 8.15051 0.17391C8.08211 0.186684 8.01403 0.200473 7.9461 0.214613C7.93602 0.216723 7.92594 0.218676 7.9159 0.220863C7.84266 0.236371 7.76977 0.252738 7.69708 0.269808C7.69462 0.270394 7.69215 0.270941 7.68969 0.271527C7.00587 0.43262 6.34619 0.66379 5.71514 0.963437C5.70205 0.969687 5.68892 0.975898 5.67588 0.982148C5.62193 1.00809 5.56807 1.03437 5.51451 1.06129C5.48623 1.07547 5.45822 1.08996 5.4301 1.10437C5.38939 1.12531 5.34873 1.14621 5.30834 1.16773C5.25811 1.19441 5.20826 1.22179 5.15846 1.24933C5.13873 1.26027 5.11881 1.2709 5.09912 1.28199C4.00179 1.89874 3.02203 2.72386 2.21391 3.72741C2.08137 3.89197 2.05035 4.11619 2.13316 4.31057L2.38648 4.90529C2.51605 5.66989 2.97218 6.32708 3.64741 6.71723C4.65514 7.29938 4.83951 7.34137 5.02322 7.34137C5.03717 7.34137 5.05108 7.3409 5.06494 7.34C5.19678 7.35031 5.6299 7.44254 6.04884 7.54262L6.42759 8.38562L4.89217 9.71413C4.72108 9.86217 4.60948 10.0671 4.57791 10.2911C4.56889 10.355 4.57077 10.4199 4.58342 10.4832L4.83916 11.7618C4.89084 12.0201 4.86768 12.2863 4.77221 12.5316C4.43596 13.3959 4.3269 13.7526 4.51792 14.0713C4.61565 14.2344 4.77959 14.341 4.96776 14.3636L7.81223 14.7062L10.2107 16.3356C10.3676 16.4422 10.5492 16.4986 10.7356 16.4986C11.0203 16.4986 11.2961 16.3641 11.4737 16.1389C11.651 15.9141 11.714 15.624 11.6466 15.343L11.1869 13.4281C11.1746 13.3768 11.1552 13.3275 11.1294 13.2815L10.716 12.5454L10.73 12.5173C11.0482 11.8788 11.1647 11.1679 11.067 10.4614C10.9561 9.65952 10.5685 8.91421 9.97573 8.36277L9.6855 8.09285L8.76141 7.04141L9.46332 5.17158C9.52015 5.13529 9.60992 5.08627 9.67488 5.05084C10.0019 4.87224 10.4089 4.64994 10.4578 4.20896L10.5753 3.14717C10.6458 2.5096 10.4789 1.87136 10.1053 1.35L9.95929 1.14633C11.1923 1.13898 12.4085 1.38843 13.5422 1.8848C13.4814 1.96257 13.4193 2.04445 13.3584 2.12847C13.0983 2.48773 12.489 3.32901 13.0172 3.88826C13.0747 3.94916 13.135 4.00736 13.1933 4.06365C13.2518 4.12018 13.337 4.20252 13.3942 4.26869C12.9339 4.6758 12.4686 5.38872 12.6331 6.10095C12.724 6.49395 13.0388 7.01625 14.0234 7.27242C14.5908 7.42008 15.197 7.50418 15.5598 7.11934C16.419 7.48918 16.8507 7.70789 16.8548 7.71C16.938 7.75242 17.0267 7.7725 17.1142 7.7725C17.3226 7.7725 17.5234 7.65832 17.6245 7.46C17.768 7.17848 17.6561 6.83387 17.3745 6.69036C17.3551 6.68051 16.889 6.4438 15.9477 6.04036C15.6773 5.92446 15.388 5.83294 15.103 5.94728C14.9211 6.02024 14.8168 6.14813 14.7564 6.25083C14.6734 6.2438 14.5336 6.22263 14.3117 6.16489C13.9276 6.06493 13.7682 5.92923 13.7483 5.84337C13.7102 5.67833 13.9063 5.33677 14.1681 5.11244C14.5027 4.82568 14.5801 4.52338 14.5862 4.32029C14.6005 3.83877 14.2568 3.49975 13.9996 3.2512C14.0942 3.05893 14.3177 2.73921 14.5778 2.4214C16.8544 3.79838 18.4021 6.12767 18.77 8.78687C18.8627 9.45667 18.879 10.1241 18.8209 10.7843C18.4628 10.4433 18.072 10.0685 17.9642 9.96112C17.551 9.54952 16.7994 9.47569 16.4599 9.4939C15.6078 9.54007 14.101 9.74889 13.5829 10.6284C12.9447 11.7101 13.077 12.8856 13.9365 13.7728C13.9649 13.8022 13.9911 13.8299 14.0152 13.856C13.6717 13.9336 13.2583 14.1421 13.0624 14.7423C12.9643 15.0427 13.1283 15.3658 13.4288 15.4639C13.4877 15.4832 13.5475 15.4923 13.6065 15.4923C13.8474 15.4923 14.0715 15.339 14.1503 15.0975C14.1894 14.978 14.1935 14.9655 14.48 14.9494C15.0562 14.9175 15.2814 14.6446 15.3688 14.4214C15.5689 13.9104 15.1728 13.4045 14.7587 12.9766C14.1257 12.3232 14.3059 11.6552 14.5688 11.2097C14.7101 10.9699 15.4263 10.6961 16.5218 10.6367C16.7517 10.6241 17.0803 10.7043 17.1565 10.7719C17.2616 10.8767 18.2042 11.7817 18.5922 12.1433C18.5617 12.2651 18.5294 12.3866 18.4935 12.5075C17.5081 15.8365 14.6504 18.2947 11.2132 18.7702C8.87051 19.0944 6.54208 18.4868 4.65643 17.0594C2.77078 15.6321 1.55395 13.5559 1.22989 11.2133C1.08489 10.1654 1.12598 9.11515 1.35196 8.09191C1.42012 7.78332 1.2252 7.47789 0.916609 7.40973C0.607899 7.34153 0.302589 7.53649 0.234425 7.84508C-0.020925 9.00136 -0.0674482 10.1873 0.0961837 11.3702C0.462119 14.0156 1.83637 16.3601 3.96573 17.972C5.72092 19.3005 7.81551 20.0002 9.97913 20.0001C10.4404 20.0001 10.9052 19.9682 11.37 19.904C15.2513 19.367 18.4783 16.5913 19.591 12.8324C19.995 11.4658 20.1002 10.052 19.9035 8.62992ZM9.43773 3.02112L9.33757 3.926C9.27418 3.96549 9.18656 4.0133 9.12629 4.04623C8.85844 4.19248 8.60543 4.33068 8.4682 4.58166C8.45527 4.60529 8.4441 4.62978 8.43461 4.65498L7.56926 6.96028C7.49505 7.15797 7.53579 7.38051 7.6752 7.53914L8.8448 8.86988C8.85746 8.88429 8.87086 8.89808 8.88492 8.91113L9.19617 9.20062C9.59656 9.57307 9.85835 10.0765 9.93327 10.618C9.99933 11.0952 9.92058 11.5754 9.7057 12.0066L9.55652 12.3059C9.47195 12.4756 9.47687 12.6761 9.56972 12.8415L10.0926 13.7724L10.4079 15.0857L8.34031 13.6811C8.26473 13.6298 8.17793 13.5972 8.08715 13.5863L5.70474 13.2994C5.75697 13.1566 5.81072 13.0186 5.83877 12.9465C6.01353 12.4972 6.05591 12.0099 5.96138 11.5372L5.7508 10.4845L7.49852 8.9723C7.68969 8.80691 7.74969 8.5357 7.6461 8.30507L6.97829 6.81864C6.90653 6.65891 6.76564 6.54087 6.59579 6.49817C6.16326 6.38946 5.40994 6.21005 5.09584 6.19567C5.01326 6.16063 4.78307 6.05153 4.21979 5.72611C3.82901 5.5004 3.56948 5.1149 3.50776 4.66845C3.50077 4.61826 3.48722 4.56924 3.46737 4.5226L3.32335 4.18451C3.89667 3.52541 4.55733 2.96159 5.28311 2.5046C5.33408 2.47245 5.38541 2.44093 5.43693 2.40991C5.4565 2.39812 5.47611 2.3864 5.4958 2.3748C5.53576 2.35116 5.57592 2.32804 5.61615 2.30503C5.64346 2.28948 5.67068 2.27378 5.69814 2.25851C5.72385 2.24421 5.74974 2.23042 5.77556 2.21632C6.5379 1.80277 7.36196 1.50144 8.22582 1.32547C8.23383 1.32386 8.2418 1.32215 8.24973 1.32054C8.30031 1.31043 8.35114 1.30086 8.40199 1.29152C8.42442 1.28742 8.44684 1.2834 8.46934 1.27949C8.51391 1.27172 8.55856 1.26414 8.60328 1.25699C8.61141 1.25566 8.61961 1.25453 8.62774 1.25328L9.17484 2.01663C9.3839 2.30804 9.47722 2.66479 9.43773 3.02112Z" fill="#16425B"/>
</g>
<defs>
<clipPath id="clip0">
<rect width="20" height="20" fill="white"/>
</clipPath>
</defs>
</svg>
