<svg width="20" height="20" viewBox="0 0 20 20" fill="none" xmlns="http://www.w3.org/2000/svg">
<g clip-path="url(#clip0)">
<path d="M16.8931 20H15.4178C15.1045 20 14.8505 19.746 14.8505 19.4327C14.8505 19.1194 15.1045 18.8654 15.4178 18.8654H16.8931C17.9806 18.8654 18.8654 17.9806 18.8654 16.8931V3.10687C18.8654 2.01941 17.9806 1.13461 16.8931 1.13461H8.3737C8.06038 1.13461 7.8064 0.880586 7.8064 0.567304C7.8064 0.254023 8.06038 0 8.3737 0H16.8931C18.6062 0 20 1.39371 20 3.10687V16.8932C20 18.6063 18.6063 20 16.8931 20Z" fill="#16425B"/>
<path d="M11.3162 20.001H3.10687C1.39371 20.001 0 18.6073 0 16.8941V3.10785C0 1.39469 1.39371 0.000976562 3.10687 0.000976562H4.38359C4.69691 0.000976562 4.95089 0.255 4.95089 0.568281C4.95089 0.881562 4.69691 1.13559 4.38359 1.13559H3.10687C2.01941 1.13559 1.13461 2.02035 1.13461 3.10785V16.8942C1.13461 17.9816 2.01937 18.8664 3.10687 18.8664H11.3162C11.6294 18.8664 11.8835 19.1205 11.8835 19.4337C11.8835 19.747 11.6294 20.001 11.3162 20.001Z" fill="#16425B"/>
<path d="M15.9995 13.9281C15.5389 13.9281 14.9754 13.9152 14.7349 13.9097C14.6624 13.9081 14.6152 13.907 14.6023 13.907C14.2168 13.9052 13.8849 13.7731 13.6157 13.5141C13.3974 13.304 13.186 13.0742 12.9816 12.852C12.8658 12.7263 12.7463 12.5963 12.6256 12.47C12.504 12.3427 12.3894 12.2387 12.2753 12.152C12.1272 12.0391 11.9694 11.9793 11.8194 11.9793C11.5712 11.9793 11.3669 12.1353 11.2587 12.4074C11.1345 12.7211 11.0391 13.4872 11.0356 13.5344C11.0203 13.7495 10.8973 13.8601 10.6596 13.8732C10.5037 13.8816 10.3506 13.886 10.2049 13.886C9.26553 13.886 8.47252 13.7058 7.78053 13.3351C7.08077 12.9603 6.45331 12.4113 5.86245 11.6569C5.11593 10.7041 4.44367 9.59948 3.68269 8.07549C3.64617 8.00237 3.06211 6.75714 3.00605 6.61667C2.99011 6.55124 2.98144 6.44448 3.03679 6.40858C3.07894 6.4046 3.20726 6.3978 3.59027 6.3978C4.22894 6.3978 5.16882 6.41714 5.22081 6.41897C5.48394 6.43323 5.62733 6.53679 5.72937 6.78835C6.17515 7.88905 6.70593 8.81737 7.35206 9.62616C7.44999 9.74932 7.57792 9.8667 7.7219 9.96533C7.82296 10.0347 7.93135 10.0713 8.0353 10.0713H8.03534C8.23323 10.0713 8.39627 9.94487 8.47147 9.73284C8.55788 9.49166 8.62737 9.04776 8.63163 8.81233C8.64291 8.23479 8.63014 7.85811 8.59901 7.28003C8.56991 6.7455 8.31569 6.42616 7.8228 6.3064C7.97272 6.14425 8.17702 6.10272 8.48905 6.08605C8.66373 6.07663 8.85479 6.07202 9.0733 6.07202C9.27639 6.07202 9.48405 6.07589 9.68487 6.07968C9.82596 6.08233 9.96697 6.08495 10.108 6.08636C10.3406 6.08847 10.5422 6.10882 10.7247 6.1487C10.8357 6.17288 10.9883 6.23589 11.0334 6.50429C11.0565 6.6405 11.0667 6.77261 11.0637 6.89725C11.0579 7.15296 11.0493 7.41315 11.041 7.66475C11.0291 8.02651 11.0167 8.40061 11.0124 8.76971C11.009 9.05616 11.0334 9.32018 11.0848 9.55448C11.1528 9.86217 11.3373 10.0457 11.5786 10.0457C11.6799 10.0457 11.8354 10.0098 12.0003 9.83889C12.2616 9.5676 12.5138 9.25194 12.8182 8.81553C13.2153 8.24588 13.5583 7.58147 13.8977 6.72448C14.0116 6.43772 14.0408 6.41757 14.344 6.4169C14.742 6.41589 15.14 6.4153 15.5379 6.4153C15.8872 6.4153 16.2365 6.41581 16.5857 6.4169C16.7189 6.41749 16.8264 6.43124 16.9143 6.45917C16.9745 6.47835 17.0265 6.50624 16.9977 6.63339C16.8914 7.10511 16.6188 7.5171 16.3716 7.86616C16.0713 8.28999 15.7554 8.71526 15.45 9.12655C15.2891 9.34307 15.1283 9.55967 14.9687 9.77713C14.9102 9.85694 14.8541 9.94592 14.7921 10.0571C14.5656 10.4669 14.6016 10.7543 14.9198 11.0829C15.089 11.2574 15.2648 11.429 15.4349 11.5949C15.6749 11.8292 15.9232 12.0714 16.1509 12.3205C16.4389 12.6361 16.6924 12.9658 16.9042 13.3003C17.0023 13.4551 17.0304 13.6051 16.9811 13.7116C16.9336 13.8145 16.8118 13.8847 16.6379 13.9094C16.5879 13.9163 16.4381 13.9281 15.9995 13.9281Z" fill="#E8ECEF"/>
<path d="M15.9996 14.4955C15.535 14.4955 14.9679 14.4826 14.7259 14.4771C14.6569 14.4755 14.6134 14.4744 14.5991 14.4743C14.0711 14.4719 13.5948 14.2813 13.2224 13.9229C12.9907 13.6998 12.7738 13.4641 12.5641 13.2361L12.5569 13.2282C12.4453 13.107 12.3299 12.9817 12.2155 12.8619C12.1149 12.7566 12.0221 12.6721 11.932 12.6036C11.8799 12.5639 11.8416 12.5504 11.8255 12.5474C11.8176 12.556 11.8021 12.5764 11.786 12.617C11.709 12.8114 11.6192 13.4053 11.601 13.5815C11.5633 14.0817 11.2148 14.411 10.6906 14.4397C10.524 14.4487 10.3607 14.4533 10.2049 14.4533C9.16964 14.4533 8.28901 14.2511 7.51261 13.8352C6.74202 13.4224 6.05617 12.8244 5.41582 12.0068C4.645 11.0229 3.9539 9.88862 3.17512 8.32902C3.14203 8.26277 2.54535 6.99304 2.4791 6.82683C2.46922 6.80211 2.46113 6.77676 2.45481 6.75086C2.37168 6.40945 2.47629 6.09594 2.72789 5.93269C2.80465 5.88293 2.89223 5.85242 2.98328 5.84387C3.01813 5.84051 3.1241 5.83055 3.59019 5.83055C4.24429 5.83055 5.18492 5.85012 5.24066 5.85203C5.24422 5.85219 5.24781 5.8523 5.25136 5.85254C5.73339 5.87863 6.07105 6.12172 6.25492 6.57511C6.67995 7.62464 7.18378 8.50675 7.79511 9.2721C7.8414 9.33038 7.90081 9.38874 7.9673 9.44179C8.0187 9.2455 8.06151 8.95175 8.06425 8.8021C8.07526 8.24132 8.06273 7.87437 8.03237 7.31058C8.01503 6.99238 7.90773 6.91097 7.6887 6.85777C7.49331 6.81027 7.33765 6.66289 7.27956 6.47043C7.22148 6.27793 7.26964 6.06906 7.40613 5.92141C7.70148 5.60199 8.08651 5.53965 8.45866 5.51977C8.64362 5.50977 8.84472 5.50488 9.07323 5.50488C9.2828 5.50488 9.49261 5.50879 9.69542 5.51266C9.83491 5.51527 9.97436 5.51789 10.1137 5.5193C10.385 5.52172 10.6247 5.54641 10.8457 5.59465C11.2479 5.68219 11.5204 5.97949 11.5928 6.41031C11.6218 6.58164 11.6346 6.75011 11.6308 6.91074C11.6251 7.16449 11.6167 7.42187 11.6084 7.67078L11.6079 7.68367C11.596 8.04562 11.5837 8.41503 11.5796 8.7764C11.5768 9.00714 11.5946 9.21753 11.6324 9.40261C11.858 9.16304 12.0822 8.8791 12.3528 8.49113C12.724 7.95859 13.0472 7.33086 13.3701 6.51574C13.5699 6.01258 13.8062 5.85086 14.3428 5.84973C15.0908 5.84785 15.8392 5.84734 16.5874 5.84973C16.7796 5.85051 16.9425 5.87305 17.0859 5.91859C17.4517 6.03519 17.6383 6.37277 17.5508 6.75894C17.4217 7.33203 17.1133 7.80023 16.8344 8.19417C16.5313 8.6221 16.2144 9.0487 15.9079 9.46136C15.745 9.6807 15.5848 9.89636 15.4259 10.1129C15.3817 10.1732 15.3376 10.2434 15.2874 10.3335C15.177 10.5333 15.1912 10.548 15.3271 10.6883C15.491 10.8573 15.6638 11.026 15.8309 11.189C16.0781 11.4303 16.3315 11.6776 16.5695 11.9379C16.8801 12.2783 17.1538 12.6344 17.3834 12.9969C17.5865 13.3177 17.6276 13.665 17.496 13.9497C17.4203 14.1138 17.2183 14.4 16.7176 14.4712C16.6424 14.4815 16.487 14.4955 15.9996 14.4955ZM11.8194 11.412C12.0948 11.412 12.3714 11.5119 12.6194 11.7008C12.757 11.8055 12.8934 11.929 13.0358 12.078C13.1576 12.2055 13.2765 12.3346 13.3915 12.4597L13.399 12.4678C13.5974 12.6835 13.8023 12.9063 14.0092 13.1054C14.1719 13.262 14.3667 13.3386 14.6048 13.3397C14.6187 13.3398 14.6697 13.3408 14.7478 13.3427C14.9899 13.3482 15.5478 13.3609 15.9995 13.3609C16.1042 13.3609 16.1905 13.3601 16.2611 13.3591C16.1039 13.1362 15.9265 12.9164 15.7317 12.703C15.5159 12.4669 15.2743 12.231 15.0405 12.0029C14.8658 11.8324 14.6874 11.6583 14.5123 11.4778C14.0179 10.9673 13.9471 10.4129 14.2954 9.78257C14.3701 9.6487 14.4383 9.54097 14.511 9.44175C14.6714 9.22312 14.8329 9.00566 14.9944 8.78816C15.2999 8.37699 15.6129 7.9555 15.9086 7.53816C16.0296 7.36722 16.1574 7.18004 16.261 6.98332C15.6426 6.98195 15.0237 6.98254 14.4049 6.98398C14.0555 7.85839 13.6984 8.54476 13.2835 9.13991C12.9612 9.60206 12.6915 9.93898 12.4089 10.2324C12.1055 10.5471 11.7899 10.613 11.5785 10.613C11.0676 10.613 10.6564 10.2455 10.5307 9.67687C10.4699 9.39968 10.4412 9.09249 10.445 8.76304C10.4493 8.38956 10.4617 8.01398 10.4738 7.65074L10.4743 7.63328C10.4825 7.38722 10.4909 7.13293 10.4965 6.88453C10.498 6.82015 10.4945 6.75222 10.4859 6.68148C10.3712 6.66414 10.2448 6.65504 10.1027 6.65379C9.95944 6.6523 9.81671 6.64969 9.67401 6.64699C9.4637 6.64308 9.2444 6.63883 9.03511 6.63949C9.10901 6.82035 9.15304 7.02441 9.1653 7.24929C9.19718 7.84156 9.2103 8.22812 9.19862 8.82347C9.19347 9.10847 9.11456 9.61937 9.00534 9.92421C8.84921 10.3642 8.47722 10.6386 8.03515 10.6386C7.81612 10.6386 7.59675 10.5676 7.40077 10.4332C7.21101 10.3032 7.04042 10.1461 6.90773 9.97917C6.22781 9.12796 5.67003 8.15351 5.20336 7.00132C5.20101 6.99558 5.19882 6.9905 5.19683 6.98593C5.19636 6.9859 5.19586 6.98582 5.19543 6.98582C5.10902 6.98343 4.37617 6.96875 3.78844 6.96574C3.96129 7.33777 4.16183 7.76496 4.19043 7.82289C4.93343 9.31081 5.58687 10.3856 6.30886 11.3071C6.85019 11.9983 7.41913 12.4981 8.04823 12.8351C8.65577 13.1605 9.36116 13.3187 10.2047 13.3187C10.2974 13.3187 10.3935 13.3169 10.4918 13.3131C10.5289 13.034 10.6115 12.5004 10.7311 12.1985C10.9271 11.7058 11.3339 11.412 11.8194 11.412Z" fill="#16425B"/>
</g>
<defs>
<clipPath id="clip0">
<rect width="20" height="20" fill="white"/>
</clipPath>
</defs>
</svg>
