<?xml version="1.0" standalone="no"?>
<!DOCTYPE svg PUBLIC "-//W3C//DTD SVG 20010904//EN"
 "http://www.w3.org/TR/2001/REC-SVG-20010904/DTD/svg10.dtd">
<svg version="1.0" xmlns="http://www.w3.org/2000/svg"
 width="512.000000pt" height="512.000000pt" viewBox="0 0 512.000000 512.000000"
 preserveAspectRatio="xMidYMid meet">
<metadata>
Created by potrace 1.16, written by Peter Selinger 2001-2019
</metadata>
<g transform="translate(0.000000,512.000000) scale(0.100000,-0.100000)"
fill="#000000" stroke="none">
<path d="M1303 3615 c-263 -48 -503 -195 -664 -408 -161 -213 -239 -492 -211
-754 16 -141 42 -235 102 -359 127 -262 345 -455 622 -550 147 -50 203 -54
719 -54 l479 0 0 205 0 205 -429 0 c-252 0 -462 4 -507 11 -152 21 -275 82
-383 190 -76 76 -122 147 -159 251 -24 66 -27 87 -27 208 0 121 3 142 27 208
37 103 82 174 158 251 77 78 164 131 275 168 l80 27 483 4 482 3 0 205 0 204
-487 -1 c-354 -1 -508 -4 -560 -14z"/>
<path d="M2770 3426 l0 -205 483 -3 482 -4 80 -27 c109 -36 196 -90 274 -168
76 -76 122 -148 159 -251 24 -66 27 -87 27 -208 -1 -115 -4 -145 -23 -200 -69
-194 -218 -348 -405 -416 -106 -38 -194 -44 -648 -44 l-429 0 0 -205 0 -205
479 0 c516 0 572 4 719 54 473 161 778 633 724 1119 -16 146 -45 246 -107 372
-140 284 -379 477 -703 568 -73 20 -101 21 -594 25 l-518 3 0 -205z"/>
<path d="M1700 2560 l0 -220 860 0 860 0 0 220 0 220 -860 0 -860 0 0 -220z"/>
</g>
</svg>
