<svg height="512" viewBox="0 0 152 152" width="512" xmlns="http://www.w3.org/2000/svg"><g id="Layer_2" data-name="Layer 2"><g id="Black_Icon" data-name="Black Icon"><g id="_22.VK" data-name="22.VK"><g id="Icon"><path d="m140 0h-128a12 12 0 0 0 -12 12v128a12 12 0 0 0 12 12h128a12 12 0 0 0 12-12v-128a12 12 0 0 0 -12-12zm-28.88 83.4c2.42 2.52 5.06 4.77 7.48 7.31 2.21 2.33 4.59 4.91 6 7.86.79 1.71.64 3.71-1.15 4.61a6.81 6.81 0 0 1 -3.06.53l-11.81.19c-.44 0-.87 0-1.3.06a9.44 9.44 0 0 1 -5.33-1.47c-3-1.76-5.32-4.61-7.54-7.24a14.94 14.94 0 0 0 -4.47-4.06c-1.64-.79-2.88 0-3.87 1.35a10.5 10.5 0 0 0 -1.66 5.35c-.13 1.56.29 3.68-1 4.86-1.55 1.43-4.41 1-6.34 1a36.05 36.05 0 0 1 -9.15-.74 36.64 36.64 0 0 1 -11.8-5.78 38.21 38.21 0 0 1 -6.49-5.69 110 110 0 0 1 -13.1-18.84c-2.25-4-4.39-8-6.34-12.1-1-2.15-2.13-4.33-3-6.56-.56-1.53-.27-2.86 1.42-3.31a19.1 19.1 0 0 1 4.6-.19h7a36.8 36.8 0 0 1 3.93 0 4.3 4.3 0 0 1 3.53 2.46c.89 2.06 1.77 4.1 2.75 6.11 1.34 2.73 2.75 5.46 4.21 8.13a35.29 35.29 0 0 0 3.16 4.93c1 1.23 2.48 3 4.13 3.25 2 .28 2.67-1.69 3-3.31a38 38 0 0 0 .67-5.42 43.41 43.41 0 0 0 -.1-6.55 15.34 15.34 0 0 0 -1.13-5.35 4.76 4.76 0 0 0 -2.94-2.41c-.52-.17-1.9-.15-2-.75s1.25-1.61 1.69-1.93c2.19-1.56 5.47-1.53 8-1.64 3.93-.17 8.37-.44 12.19.69 4 1.2 3.17 6.45 3 9.73-.14 3.85-.43 7.82-.22 11.68.09 1.57.23 4.12 1.9 4.92s3.28-1.2 4.29-2.27a50.63 50.63 0 0 0 6.68-10q1.61-2.92 3-6c.48-1.07.95-2.16 1.39-3.25a5 5 0 0 1 1.48-2.48c1-.74 2.7-.47 3.92-.48h6.68 5.71c1.75 0 4.94-.61 5.73 1.52.63 1.69-.66 4-1.39 5.45a68.24 68.24 0 0 1 -6.29 9.53c-2.26 3-4.71 5.91-6.79 9.06a6.68 6.68 0 0 0 -1.43 3.32c.04 1.6 1.1 2.82 2.16 3.92z"/></g></g></g></g></svg>