<svg width="160" height="41" viewBox="0 0 160 41" fill="none" xmlns="http://www.w3.org/2000/svg">
<path d="M26.116 38C25.9767 37.626 25.8447 37.2667 25.72 36.922C25.5953 36.5773 25.4743 36.24 25.357 35.91H21.65C21.5253 36.24 21.4007 36.5773 21.276 36.922C21.1513 37.2667 21.023 37.626 20.891 38H20.11C20.4033 37.208 20.6783 36.471 20.935 35.789C21.1917 35.0997 21.441 34.4507 21.683 33.842C21.9323 33.226 22.178 32.6357 22.42 32.071C22.662 31.5063 22.9187 30.9417 23.19 30.377H23.85C24.1213 30.9417 24.378 31.5063 24.62 32.071C24.862 32.6357 25.104 33.226 25.346 33.842C25.5953 34.4507 25.8483 35.0997 26.105 35.789C26.3617 36.471 26.6403 37.208 26.941 38H26.116ZM23.498 31.235C23.2193 31.8657 22.948 32.5073 22.684 33.16C22.4273 33.8127 22.1597 34.5167 21.881 35.272H25.126C24.8473 34.5167 24.576 33.8127 24.312 33.16C24.048 32.5073 23.7767 31.8657 23.498 31.235ZM31.2489 32.918H28.7079V38H27.9929V32.313H31.2489V32.918ZM33.0799 36.977C33.1459 37.0283 33.2266 37.0833 33.3219 37.142C33.4246 37.2007 33.5419 37.2557 33.6739 37.307C33.8059 37.3583 33.9489 37.4023 34.1029 37.439C34.2569 37.4683 34.4183 37.483 34.5869 37.483C34.9389 37.483 35.2323 37.4243 35.4669 37.307C35.7089 37.1823 35.9033 37.0173 36.0499 36.812C36.1966 36.5993 36.3029 36.3537 36.3689 36.075C36.4349 35.789 36.4679 35.4883 36.4679 35.173C36.4679 34.425 36.2809 33.853 35.9069 33.457C35.5329 33.0537 35.0379 32.852 34.4219 32.852C34.0699 32.852 33.7839 32.8703 33.5639 32.907C33.3513 32.9363 33.1899 32.9693 33.0799 33.006V36.977ZM33.0799 40.035H32.3649V32.511C32.5776 32.4377 32.8489 32.368 33.1789 32.302C33.5089 32.236 33.9269 32.203 34.4329 32.203C34.8509 32.203 35.2286 32.2727 35.5659 32.412C35.9106 32.544 36.2039 32.7383 36.4459 32.995C36.6953 33.2517 36.8859 33.5633 37.0179 33.93C37.1573 34.2967 37.2269 34.711 37.2269 35.173C37.2269 35.6057 37.1683 36.0053 37.0509 36.372C36.9409 36.7313 36.7759 37.043 36.5559 37.307C36.3359 37.5637 36.0646 37.7653 35.7419 37.912C35.4266 38.0587 35.0636 38.132 34.6529 38.132C34.2789 38.132 33.9526 38.0807 33.6739 37.978C33.4026 37.868 33.2046 37.7653 33.0799 37.67V40.035ZM38.437 35.151C38.437 34.6523 38.5067 34.2197 38.646 33.853C38.7927 33.479 38.9797 33.1673 39.207 32.918C39.4417 32.6687 39.7057 32.4853 39.999 32.368C40.2997 32.2433 40.6077 32.181 40.923 32.181C41.6197 32.181 42.1734 32.4083 42.584 32.863C43.002 33.3177 43.211 34.018 43.211 34.964C43.211 35.0227 43.2074 35.0813 43.2 35.14C43.2 35.1987 43.1964 35.2537 43.189 35.305H39.196C39.218 36.0017 39.3904 36.537 39.713 36.911C40.0357 37.285 40.549 37.472 41.253 37.472C41.6417 37.472 41.9497 37.4353 42.177 37.362C42.4044 37.2887 42.5694 37.2263 42.672 37.175L42.804 37.791C42.7014 37.8497 42.507 37.9193 42.221 38C41.9424 38.0807 41.6124 38.121 41.231 38.121C40.7324 38.121 40.307 38.0477 39.955 37.901C39.603 37.7543 39.3134 37.549 39.086 37.285C38.8587 37.021 38.6937 36.7093 38.591 36.35C38.4884 35.9833 38.437 35.5837 38.437 35.151ZM42.474 34.7C42.4594 34.106 42.32 33.644 42.056 33.314C41.792 32.984 41.418 32.819 40.934 32.819C40.6774 32.819 40.4464 32.8703 40.241 32.973C40.043 33.0757 39.867 33.215 39.713 33.391C39.5664 33.5597 39.449 33.7577 39.361 33.985C39.2804 34.2123 39.2327 34.4507 39.218 34.7H42.474ZM48.0604 32.918H45.5194V38H44.8044V32.313H48.0604V32.918ZM50.9695 37.483C51.2481 37.483 51.4901 37.4757 51.6955 37.461C51.9081 37.439 52.0878 37.4133 52.2345 37.384V35.382C52.1538 35.3453 52.0255 35.3087 51.8495 35.272C51.6735 35.228 51.4315 35.206 51.1235 35.206C50.9475 35.206 50.7641 35.2207 50.5735 35.25C50.3828 35.272 50.2068 35.327 50.0455 35.415C49.8841 35.4957 49.7521 35.6093 49.6495 35.756C49.5468 35.9027 49.4955 36.097 49.4955 36.339C49.4955 36.5517 49.5285 36.7313 49.5945 36.878C49.6678 37.0247 49.7668 37.142 49.8915 37.23C50.0235 37.318 50.1775 37.384 50.3535 37.428C50.5368 37.4647 50.7421 37.483 50.9695 37.483ZM50.9035 32.181C51.2775 32.181 51.5928 32.236 51.8495 32.346C52.1135 32.4487 52.3261 32.5953 52.4875 32.786C52.6488 32.9693 52.7661 33.1893 52.8395 33.446C52.9128 33.7027 52.9495 33.9813 52.9495 34.282V37.868C52.8761 37.89 52.7698 37.9157 52.6305 37.945C52.4911 37.967 52.3298 37.9927 52.1465 38.022C51.9631 38.0513 51.7578 38.0733 51.5305 38.088C51.3105 38.11 51.0831 38.121 50.8485 38.121C50.5478 38.121 50.2691 38.088 50.0125 38.022C49.7631 37.956 49.5431 37.8533 49.3525 37.714C49.1691 37.5673 49.0225 37.384 48.9125 37.164C48.8098 36.9367 48.7585 36.6617 48.7585 36.339C48.7585 36.031 48.8171 35.767 48.9345 35.547C49.0518 35.327 49.2168 35.1473 49.4295 35.008C49.6421 34.8613 49.8951 34.755 50.1885 34.689C50.4818 34.623 50.8008 34.59 51.1455 34.59C51.2481 34.59 51.3545 34.5973 51.4645 34.612C51.5818 34.6193 51.6918 34.634 51.7945 34.656C51.9045 34.6707 51.9961 34.689 52.0695 34.711C52.1501 34.7257 52.2051 34.7403 52.2345 34.755V34.403C52.2345 34.205 52.2198 34.0143 52.1905 33.831C52.1611 33.6403 52.0951 33.4717 51.9925 33.325C51.8971 33.171 51.7578 33.05 51.5745 32.962C51.3985 32.8667 51.1638 32.819 50.8705 32.819C50.4525 32.819 50.1408 32.8483 49.9355 32.907C49.7301 32.9657 49.5798 33.0133 49.4845 33.05L49.3855 32.423C49.5101 32.3643 49.7008 32.3093 49.9575 32.258C50.2215 32.2067 50.5368 32.181 50.9035 32.181ZM58.4361 32.313V32.918H56.5661V38H55.8511V32.918H53.9921V32.313H58.4361ZM64.3937 35.162C64.3937 35.6093 64.3277 36.0163 64.1957 36.383C64.071 36.7497 63.8913 37.0613 63.6567 37.318C63.4293 37.5747 63.158 37.7763 62.8427 37.923C62.5273 38.0623 62.179 38.132 61.7977 38.132C61.4163 38.132 61.068 38.0623 60.7527 37.923C60.4373 37.7763 60.1623 37.5747 59.9277 37.318C59.7003 37.0613 59.5207 36.7497 59.3887 36.383C59.264 36.0163 59.2017 35.6093 59.2017 35.162C59.2017 34.7147 59.264 34.3077 59.3887 33.941C59.5207 33.5743 59.7003 33.2627 59.9277 33.006C60.1623 32.742 60.4373 32.5403 60.7527 32.401C61.068 32.2543 61.4163 32.181 61.7977 32.181C62.179 32.181 62.5273 32.2543 62.8427 32.401C63.158 32.5403 63.4293 32.742 63.6567 33.006C63.8913 33.2627 64.071 33.5743 64.1957 33.941C64.3277 34.3077 64.3937 34.7147 64.3937 35.162ZM63.6347 35.162C63.6347 34.4507 63.4697 33.886 63.1397 33.468C62.8097 33.0427 62.3623 32.83 61.7977 32.83C61.233 32.83 60.7857 33.0427 60.4557 33.468C60.1257 33.886 59.9607 34.4507 59.9607 35.162C59.9607 35.8733 60.1257 36.438 60.4557 36.856C60.7857 37.274 61.233 37.483 61.7977 37.483C62.3623 37.483 62.8097 37.274 63.1397 36.856C63.4697 36.438 63.6347 35.8733 63.6347 35.162ZM66.66 36.977C66.726 37.0283 66.8067 37.0833 66.902 37.142C67.0047 37.2007 67.122 37.2557 67.254 37.307C67.386 37.3583 67.529 37.4023 67.683 37.439C67.837 37.4683 67.9984 37.483 68.167 37.483C68.519 37.483 68.8124 37.4243 69.047 37.307C69.289 37.1823 69.4834 37.0173 69.63 36.812C69.7767 36.5993 69.883 36.3537 69.949 36.075C70.015 35.789 70.048 35.4883 70.048 35.173C70.048 34.425 69.861 33.853 69.487 33.457C69.113 33.0537 68.618 32.852 68.002 32.852C67.65 32.852 67.364 32.8703 67.144 32.907C66.9314 32.9363 66.77 32.9693 66.66 33.006V36.977ZM66.66 40.035H65.945V32.511C66.1577 32.4377 66.429 32.368 66.759 32.302C67.089 32.236 67.507 32.203 68.013 32.203C68.431 32.203 68.8087 32.2727 69.146 32.412C69.4907 32.544 69.784 32.7383 70.026 32.995C70.2754 33.2517 70.466 33.5633 70.598 33.93C70.7374 34.2967 70.807 34.711 70.807 35.173C70.807 35.6057 70.7484 36.0053 70.631 36.372C70.521 36.7313 70.356 37.043 70.136 37.307C69.916 37.5637 69.6447 37.7653 69.322 37.912C69.0067 38.0587 68.6437 38.132 68.233 38.132C67.859 38.132 67.5327 38.0807 67.254 37.978C66.9827 37.868 66.7847 37.7653 66.66 37.67V40.035ZM74.861 38V32.313H75.576V34.942C75.7814 34.744 76.0087 34.524 76.258 34.282C76.5147 34.0327 76.764 33.787 77.006 33.545C77.248 33.2957 77.4717 33.0647 77.677 32.852C77.8897 32.632 78.0584 32.4523 78.183 32.313H79.041C78.8724 32.5037 78.6707 32.72 78.436 32.962C78.2014 33.1967 77.9594 33.435 77.71 33.677C77.468 33.919 77.2297 34.1537 76.995 34.381C76.7677 34.6083 76.566 34.8027 76.39 34.964C76.6394 35.1253 76.9034 35.327 77.182 35.569C77.4607 35.8037 77.7284 36.0603 77.985 36.339C78.249 36.6103 78.491 36.8927 78.711 37.186C78.9384 37.472 79.129 37.7433 79.283 38H78.436C78.26 37.7287 78.051 37.4537 77.809 37.175C77.5744 36.8963 77.325 36.6323 77.061 36.383C76.8044 36.1263 76.544 35.8953 76.28 35.69C76.0234 35.4847 75.7887 35.3197 75.576 35.195V38H74.861ZM81.1405 36.977C81.2065 37.0283 81.2872 37.0833 81.3825 37.142C81.4852 37.2007 81.6025 37.2557 81.7345 37.307C81.8665 37.3583 82.0095 37.4023 82.1635 37.439C82.3175 37.4683 82.4788 37.483 82.6475 37.483C82.9995 37.483 83.2928 37.4243 83.5275 37.307C83.7695 37.1823 83.9638 37.0173 84.1105 36.812C84.2572 36.5993 84.3635 36.3537 84.4295 36.075C84.4955 35.789 84.5285 35.4883 84.5285 35.173C84.5285 34.425 84.3415 33.853 83.9675 33.457C83.5935 33.0537 83.0985 32.852 82.4825 32.852C82.1305 32.852 81.8445 32.8703 81.6245 32.907C81.4118 32.9363 81.2505 32.9693 81.1405 33.006V36.977ZM81.1405 40.035H80.4255V32.511C80.6382 32.4377 80.9095 32.368 81.2395 32.302C81.5695 32.236 81.9875 32.203 82.4935 32.203C82.9115 32.203 83.2892 32.2727 83.6265 32.412C83.9712 32.544 84.2645 32.7383 84.5065 32.995C84.7558 33.2517 84.9465 33.5633 85.0785 33.93C85.2178 34.2967 85.2875 34.711 85.2875 35.173C85.2875 35.6057 85.2288 36.0053 85.1115 36.372C85.0015 36.7313 84.8365 37.043 84.6165 37.307C84.3965 37.5637 84.1252 37.7653 83.8025 37.912C83.4872 38.0587 83.1242 38.132 82.7135 38.132C82.3395 38.132 82.0132 38.0807 81.7345 37.978C81.4632 37.868 81.2652 37.7653 81.1405 37.67V40.035ZM90.7106 33.226C90.4906 33.49 90.2339 33.8237 89.9406 34.227C89.6546 34.6303 89.3612 35.0557 89.0606 35.503C88.7672 35.9503 88.4849 36.394 88.2136 36.834C87.9422 37.274 87.7076 37.6627 87.5096 38H86.8386V32.313H87.5426V36.867C87.7186 36.5517 87.9349 36.1887 88.1916 35.778C88.4556 35.36 88.7342 34.942 89.0276 34.524C89.3209 34.0987 89.6142 33.6917 89.9076 33.303C90.2082 32.9143 90.4869 32.5843 90.7436 32.313H91.4146V38H90.7106V33.226ZM97.6944 38H96.9794V32.918H94.0204V38H93.3054V32.313H97.6944V38ZM103.253 32.313V32.918H101.383V38H100.668V32.918H98.8086V32.313H103.253ZM109.21 35.162C109.21 35.6093 109.144 36.0163 109.012 36.383C108.887 36.7497 108.708 37.0613 108.473 37.318C108.246 37.5747 107.974 37.7763 107.659 37.923C107.344 38.0623 106.995 38.132 106.614 38.132C106.233 38.132 105.884 38.0623 105.569 37.923C105.254 37.7763 104.979 37.5747 104.744 37.318C104.517 37.0613 104.337 36.7497 104.205 36.383C104.08 36.0163 104.018 35.6093 104.018 35.162C104.018 34.7147 104.08 34.3077 104.205 33.941C104.337 33.5743 104.517 33.2627 104.744 33.006C104.979 32.742 105.254 32.5403 105.569 32.401C105.884 32.2543 106.233 32.181 106.614 32.181C106.995 32.181 107.344 32.2543 107.659 32.401C107.974 32.5403 108.246 32.742 108.473 33.006C108.708 33.2627 108.887 33.5743 109.012 33.941C109.144 34.3077 109.21 34.7147 109.21 35.162ZM108.451 35.162C108.451 34.4507 108.286 33.886 107.956 33.468C107.626 33.0427 107.179 32.83 106.614 32.83C106.049 32.83 105.602 33.0427 105.272 33.468C104.942 33.886 104.777 34.4507 104.777 35.162C104.777 35.8733 104.942 36.438 105.272 36.856C105.602 37.274 106.049 37.483 106.614 37.483C107.179 37.483 107.626 37.274 107.956 36.856C108.286 36.438 108.451 35.8733 108.451 35.162ZM115.282 38H114.567V35.349H111.476V38H110.761V32.313H111.476V34.744H114.567V32.313H115.282V38ZM122.026 35.162C122.026 35.6093 121.96 36.0163 121.828 36.383C121.703 36.7497 121.523 37.0613 121.289 37.318C121.061 37.5747 120.79 37.7763 120.475 37.923C120.159 38.0623 119.811 38.132 119.43 38.132C119.048 38.132 118.7 38.0623 118.385 37.923C118.069 37.7763 117.794 37.5747 117.56 37.318C117.332 37.0613 117.153 36.7497 117.021 36.383C116.896 36.0163 116.834 35.6093 116.834 35.162C116.834 34.7147 116.896 34.3077 117.021 33.941C117.153 33.5743 117.332 33.2627 117.56 33.006C117.794 32.742 118.069 32.5403 118.385 32.401C118.7 32.2543 119.048 32.181 119.43 32.181C119.811 32.181 120.159 32.2543 120.475 32.401C120.79 32.5403 121.061 32.742 121.289 33.006C121.523 33.2627 121.703 33.5743 121.828 33.941C121.96 34.3077 122.026 34.7147 122.026 35.162ZM121.267 35.162C121.267 34.4507 121.102 33.886 120.772 33.468C120.442 33.0427 119.994 32.83 119.43 32.83C118.865 32.83 118.418 33.0427 118.088 33.468C117.758 33.886 117.593 34.4507 117.593 35.162C117.593 35.8733 117.758 36.438 118.088 36.856C118.418 37.274 118.865 37.483 119.43 37.483C119.994 37.483 120.442 37.274 120.772 36.856C121.102 36.438 121.267 35.8733 121.267 35.162ZM125.414 32.192C125.634 32.192 125.88 32.2067 126.151 32.236C126.43 32.258 126.69 32.3203 126.932 32.423C127.174 32.5183 127.376 32.6723 127.537 32.885C127.706 33.0903 127.79 33.3727 127.79 33.732C127.79 34.0107 127.709 34.26 127.548 34.48C127.387 34.6927 127.167 34.8503 126.888 34.953C127.299 35.063 127.596 35.239 127.779 35.481C127.962 35.723 128.054 36.02 128.054 36.372C128.054 36.7533 127.977 37.0613 127.823 37.296C127.669 37.5233 127.464 37.6993 127.207 37.824C126.958 37.9413 126.672 38.0183 126.349 38.055C126.034 38.0917 125.711 38.11 125.381 38.11C124.985 38.11 124.637 38.0843 124.336 38.033C124.043 37.9817 123.79 37.9267 123.577 37.868V32.434C123.76 32.3753 124.002 32.3203 124.303 32.269C124.604 32.2177 124.974 32.192 125.414 32.192ZM124.292 34.7H125.59C126.03 34.7 126.386 34.6267 126.657 34.48C126.928 34.3333 127.064 34.0877 127.064 33.743C127.064 33.523 127.016 33.3507 126.921 33.226C126.826 33.1013 126.701 33.0097 126.547 32.951C126.393 32.885 126.217 32.8447 126.019 32.83C125.821 32.808 125.623 32.797 125.425 32.797C125.183 32.797 124.952 32.8117 124.732 32.841C124.512 32.863 124.365 32.885 124.292 32.907V34.7ZM124.292 35.294V37.384C124.329 37.3987 124.387 37.4133 124.468 37.428C124.556 37.4353 124.651 37.4463 124.754 37.461C124.864 37.4683 124.978 37.4757 125.095 37.483C125.22 37.4903 125.337 37.494 125.447 37.494C125.696 37.494 125.935 37.4793 126.162 37.45C126.389 37.4207 126.587 37.3657 126.756 37.285C126.925 37.197 127.06 37.0833 127.163 36.944C127.266 36.7973 127.317 36.6067 127.317 36.372C127.317 36.1667 127.273 35.9943 127.185 35.855C127.104 35.7157 126.987 35.6057 126.833 35.525C126.686 35.4443 126.51 35.3857 126.305 35.349C126.107 35.3123 125.891 35.294 125.656 35.294H124.292ZM134.433 35.162C134.433 35.6093 134.367 36.0163 134.235 36.383C134.11 36.7497 133.93 37.0613 133.696 37.318C133.468 37.5747 133.197 37.7763 132.882 37.923C132.566 38.0623 132.218 38.132 131.837 38.132C131.455 38.132 131.107 38.0623 130.792 37.923C130.476 37.7763 130.201 37.5747 129.967 37.318C129.739 37.0613 129.56 36.7497 129.428 36.383C129.303 36.0163 129.241 35.6093 129.241 35.162C129.241 34.7147 129.303 34.3077 129.428 33.941C129.56 33.5743 129.739 33.2627 129.967 33.006C130.201 32.742 130.476 32.5403 130.792 32.401C131.107 32.2543 131.455 32.181 131.837 32.181C132.218 32.181 132.566 32.2543 132.882 32.401C133.197 32.5403 133.468 32.742 133.696 33.006C133.93 33.2627 134.11 33.5743 134.235 33.941C134.367 34.3077 134.433 34.7147 134.433 35.162ZM133.674 35.162C133.674 34.4507 133.509 33.886 133.179 33.468C132.849 33.0427 132.401 32.83 131.837 32.83C131.272 32.83 130.825 33.0427 130.495 33.468C130.165 33.886 130 34.4507 130 35.162C130 35.8733 130.165 36.438 130.495 36.856C130.825 37.274 131.272 37.483 131.837 37.483C132.401 37.483 132.849 37.274 133.179 36.856C133.509 36.438 133.674 35.8733 133.674 35.162ZM138.338 38.121C137.898 38.121 137.509 38.0513 137.172 37.912C136.835 37.7727 136.552 37.5747 136.325 37.318C136.105 37.054 135.936 36.7423 135.819 36.383C135.702 36.0163 135.643 35.613 135.643 35.173C135.643 34.7257 135.702 34.3187 135.819 33.952C135.944 33.5853 136.12 33.27 136.347 33.006C136.574 32.742 136.849 32.5403 137.172 32.401C137.495 32.2543 137.858 32.181 138.261 32.181C138.569 32.181 138.855 32.2067 139.119 32.258C139.39 32.3093 139.599 32.3753 139.746 32.456L139.559 33.072C139.412 32.9987 139.247 32.94 139.064 32.896C138.881 32.852 138.635 32.83 138.327 32.83C137.696 32.83 137.216 33.0353 136.886 33.446C136.563 33.8493 136.402 34.425 136.402 35.173C136.402 35.5103 136.439 35.822 136.512 36.108C136.585 36.3867 136.703 36.6287 136.864 36.834C137.033 37.032 137.245 37.1897 137.502 37.307C137.766 37.417 138.085 37.472 138.459 37.472C138.767 37.472 139.024 37.439 139.229 37.373C139.442 37.2997 139.596 37.2373 139.691 37.186L139.845 37.802C139.713 37.8753 139.504 37.945 139.218 38.011C138.939 38.0843 138.646 38.121 138.338 38.121ZM144.868 32.313V32.918H142.998V38H142.283V32.918H140.424V32.313H144.868ZM145.633 35.151C145.633 34.6523 145.703 34.2197 145.842 33.853C145.989 33.479 146.176 33.1673 146.403 32.918C146.638 32.6687 146.902 32.4853 147.195 32.368C147.496 32.2433 147.804 32.181 148.119 32.181C148.816 32.181 149.37 32.4083 149.78 32.863C150.198 33.3177 150.407 34.018 150.407 34.964C150.407 35.0227 150.404 35.0813 150.396 35.14C150.396 35.1987 150.393 35.2537 150.385 35.305H146.392C146.414 36.0017 146.587 36.537 146.909 36.911C147.232 37.285 147.745 37.472 148.449 37.472C148.838 37.472 149.146 37.4353 149.373 37.362C149.601 37.2887 149.766 37.2263 149.868 37.175L150 37.791C149.898 37.8497 149.703 37.9193 149.417 38C149.139 38.0807 148.809 38.121 148.427 38.121C147.929 38.121 147.503 38.0477 147.151 37.901C146.799 37.7543 146.51 37.549 146.282 37.285C146.055 37.021 145.89 36.7093 145.787 36.35C145.685 35.9833 145.633 35.5837 145.633 35.151ZM149.67 34.7C149.656 34.106 149.516 33.644 149.252 33.314C148.988 32.984 148.614 32.819 148.13 32.819C147.874 32.819 147.643 32.8703 147.437 32.973C147.239 33.0757 147.063 33.215 146.909 33.391C146.763 33.5597 146.645 33.7577 146.557 33.985C146.477 34.2123 146.429 34.4507 146.414 34.7H149.67ZM155.873 33.226C155.653 33.49 155.396 33.8237 155.103 34.227C154.817 34.6303 154.523 35.0557 154.223 35.503C153.929 35.9503 153.647 36.394 153.376 36.834C153.104 37.274 152.87 37.6627 152.672 38H152.001V32.313H152.705V36.867C152.881 36.5517 153.097 36.1887 153.354 35.778C153.618 35.36 153.896 34.942 154.19 34.524C154.483 34.0987 154.776 33.6917 155.07 33.303C155.37 32.9143 155.649 32.5843 155.906 32.313H156.577V38H155.873V33.226ZM154.289 31.345C153.878 31.345 153.541 31.2313 153.277 31.004C153.013 30.7767 152.844 30.454 152.771 30.036L153.354 29.882C153.398 30.1313 153.493 30.3367 153.64 30.498C153.794 30.652 154.01 30.729 154.289 30.729C154.567 30.729 154.78 30.652 154.927 30.498C155.081 30.3367 155.18 30.1313 155.224 29.882L155.807 30.036C155.733 30.454 155.565 30.7767 155.301 31.004C155.037 31.2313 154.699 31.345 154.289 31.345Z" fill="#16425B"/>
<path d="M34.7144 21H25.0962C24.8501 21 24.5835 20.9727 24.2964 20.918C24.0161 20.8564 23.7358 20.7642 23.4556 20.6411C23.1821 20.5181 22.9189 20.3608 22.666 20.1694C22.4131 19.9712 22.1875 19.7354 21.9893 19.4619C21.7979 19.1816 21.644 18.8604 21.5278 18.498C21.4116 18.1289 21.3535 17.7153 21.3535 17.2573V10.0386C21.3535 9.79248 21.3809 9.5293 21.4355 9.24902C21.4971 8.96191 21.5894 8.68164 21.7124 8.4082C21.8354 8.12793 21.9961 7.86133 22.1943 7.6084C22.3926 7.35547 22.6284 7.1333 22.9019 6.94189C23.1821 6.74365 23.5034 6.58643 23.8657 6.47021C24.228 6.354 24.6382 6.2959 25.0962 6.2959H34.7144V8.96191H25.0962C24.7476 8.96191 24.481 9.0542 24.2964 9.23877C24.1118 9.42334 24.0195 9.69678 24.0195 10.0591V17.2573C24.0195 17.5991 24.1118 17.8657 24.2964 18.0571C24.4878 18.2417 24.7544 18.334 25.0962 18.334H34.7144V21ZM48.8545 17.2573C48.8545 17.7153 48.7964 18.1289 48.6802 18.498C48.564 18.8604 48.4102 19.1816 48.2188 19.4619C48.0273 19.7354 47.8052 19.9712 47.5522 20.1694C47.2993 20.3608 47.0327 20.5181 46.7524 20.6411C46.479 20.7642 46.1987 20.8564 45.9116 20.918C45.6313 20.9727 45.3647 21 45.1118 21H40.3027C39.9336 21 39.5303 20.9351 39.0928 20.8052C38.6553 20.6753 38.2485 20.4634 37.8726 20.1694C37.5034 19.8687 37.1924 19.4824 36.9395 19.0107C36.6934 18.5322 36.5703 17.9478 36.5703 17.2573V13.6479C36.5703 12.9644 36.6934 12.3867 36.9395 11.915C37.1924 11.4365 37.5034 11.0503 37.8726 10.7563C38.2485 10.4556 38.6553 10.2402 39.0928 10.1104C39.5303 9.98047 39.9336 9.91553 40.3027 9.91553H45.1118C45.7954 9.91553 46.3765 10.0386 46.855 10.2847C47.3335 10.5308 47.7197 10.8418 48.0137 11.2178C48.3076 11.5869 48.5195 11.9902 48.6494 12.4277C48.7861 12.8652 48.8545 13.272 48.8545 13.6479V17.2573ZM46.1885 13.6685C46.1885 13.2993 46.0962 13.0259 45.9116 12.8481C45.7271 12.6704 45.4604 12.5815 45.1118 12.5815H40.3232C39.9678 12.5815 39.6978 12.6738 39.5132 12.8584C39.3286 13.0361 39.2363 13.2993 39.2363 13.6479V17.2573C39.2363 17.606 39.3286 17.8726 39.5132 18.0571C39.6978 18.2417 39.9678 18.334 40.3232 18.334H45.1118C45.4741 18.334 45.7441 18.2417 45.9219 18.0571C46.0996 17.8726 46.1885 17.606 46.1885 17.2573V13.6685ZM53.8379 7.63916H51.1719V5.22949H53.8379V7.63916ZM53.8379 21H51.1719V9.91553H53.8379V21ZM68.6855 21H66.0195V14.8477C66.0195 14.499 65.958 14.188 65.835 13.9146C65.7188 13.6343 65.5581 13.395 65.353 13.1968C65.1479 12.9985 64.9053 12.8481 64.625 12.7456C64.3516 12.6362 64.0542 12.5815 63.7329 12.5815H59.0674V21H56.4014V11.2383C56.4014 11.0537 56.4355 10.8828 56.5039 10.7256C56.5723 10.5615 56.668 10.4214 56.791 10.3052C56.9141 10.1821 57.0576 10.0864 57.2217 10.0181C57.3857 9.94971 57.5601 9.91553 57.7446 9.91553H63.7534C64.0884 9.91553 64.4404 9.95312 64.8096 10.0283C65.1855 10.1035 65.5547 10.2266 65.917 10.3975C66.2861 10.5615 66.6348 10.7734 66.9629 11.0332C67.2979 11.2861 67.5918 11.5972 67.8447 11.9663C68.1045 12.3286 68.3096 12.749 68.46 13.2275C68.6104 13.7061 68.6855 14.2461 68.6855 14.8477V21ZM75.894 21H74.7046C74.3218 21 73.9116 20.9351 73.4741 20.8052C73.0435 20.6753 72.6401 20.4634 72.2642 20.1694C71.8882 19.8687 71.5771 19.4824 71.3311 19.0107C71.085 18.5322 70.9619 17.9478 70.9619 17.2573V5.22949H73.6279V17.2573C73.6279 17.5854 73.7305 17.8486 73.9355 18.0469C74.1406 18.2383 74.397 18.334 74.7046 18.334H75.894V21ZM89.5317 13.5864C89.5317 13.9556 89.4668 14.3555 89.3369 14.7861C89.207 15.21 88.9951 15.6064 88.7012 15.9756C88.4141 16.3379 88.0347 16.6421 87.563 16.8882C87.0981 17.1343 86.5308 17.2573 85.8608 17.2573H81.0518V14.7246H85.8608C86.2231 14.7246 86.5034 14.6152 86.7017 14.3965C86.8999 14.1709 86.999 13.894 86.999 13.5659C86.999 13.2173 86.8862 12.9438 86.6606 12.7456C86.4419 12.5474 86.1753 12.4482 85.8608 12.4482H81.0518C80.6895 12.4482 80.4092 12.561 80.2109 12.7866C80.0127 13.0054 79.9136 13.2788 79.9136 13.6069V17.3291C79.9136 17.6846 80.0229 17.9614 80.2417 18.1597C80.4673 18.3579 80.7441 18.457 81.0723 18.457H85.8608V21H81.0518C80.6826 21 80.2827 20.9351 79.8521 20.8052C79.4282 20.6753 79.0317 20.4668 78.6626 20.1797C78.3003 19.8857 77.9961 19.5063 77.75 19.0415C77.5039 18.5698 77.3809 17.999 77.3809 17.3291V13.5864C77.3809 13.2173 77.4458 12.8208 77.5757 12.397C77.7056 11.9663 77.9141 11.5698 78.2012 11.2075C78.4951 10.8384 78.8745 10.5308 79.3394 10.2847C79.811 10.0386 80.3818 9.91553 81.0518 9.91553H85.8608C86.23 9.91553 86.6265 9.98047 87.0503 10.1104C87.481 10.2402 87.8774 10.4521 88.2397 10.7461C88.6089 11.0332 88.9165 11.4126 89.1626 11.8843C89.4087 12.3491 89.5317 12.9165 89.5317 13.5864ZM103.61 21H100.944V14.8477C100.944 14.499 100.883 14.188 100.76 13.9146C100.644 13.6343 100.483 13.395 100.278 13.1968C100.073 12.9985 99.8301 12.8481 99.5498 12.7456C99.2764 12.6362 98.979 12.5815 98.6577 12.5815H93.9922V21H91.3262V11.2383C91.3262 11.0537 91.3604 10.8828 91.4287 10.7256C91.4971 10.5615 91.5928 10.4214 91.7158 10.3052C91.8389 10.1821 91.9824 10.0864 92.1465 10.0181C92.3105 9.94971 92.4849 9.91553 92.6694 9.91553H98.6782C99.0132 9.91553 99.3652 9.95312 99.7344 10.0283C100.11 10.1035 100.479 10.2266 100.842 10.3975C101.211 10.5615 101.56 10.7734 101.888 11.0332C102.223 11.2861 102.517 11.5972 102.77 11.9663C103.029 12.3286 103.234 12.749 103.385 13.2275C103.535 13.7061 103.61 14.2461 103.61 14.8477V21ZM115.7 12.5815H111.044V21H108.348V12.5815H104.882V9.91553H108.348V6.2959H111.044V9.91553H115.7V12.5815ZM128.261 17.3291C128.261 17.6982 128.196 18.0981 128.066 18.5288C127.936 18.9526 127.724 19.3491 127.43 19.7183C127.143 20.0806 126.764 20.3848 126.292 20.6309C125.827 20.877 125.26 21 124.59 21H119.781C119.412 21 119.012 20.9351 118.581 20.8052C118.157 20.6753 117.761 20.4668 117.392 20.1797C117.029 19.8857 116.725 19.5063 116.479 19.0415C116.233 18.5698 116.11 17.999 116.11 17.3291C116.11 16.96 116.175 16.5601 116.305 16.1294C116.435 15.6987 116.643 15.3022 116.93 14.9399C117.224 14.5708 117.604 14.2632 118.068 14.0171C118.54 13.771 119.111 13.6479 119.781 13.6479H124.59V16.1909H119.781C119.418 16.1909 119.138 16.3037 118.94 16.5293C118.742 16.748 118.643 17.0215 118.643 17.3496C118.643 17.6982 118.755 17.9717 118.981 18.1699C119.213 18.3613 119.487 18.457 119.801 18.457H124.59C124.952 18.457 125.232 18.3477 125.431 18.1289C125.629 17.9102 125.728 17.6367 125.728 17.3086V13.5864C125.728 13.2378 125.619 12.9609 125.4 12.7559C125.188 12.5508 124.918 12.4482 124.59 12.4482H118.735V9.91553H124.59C124.959 9.91553 125.355 9.98047 125.779 10.1104C126.21 10.2402 126.606 10.4521 126.969 10.7461C127.338 11.0332 127.646 11.4126 127.892 11.8843C128.138 12.3491 128.261 12.9165 128.261 13.5864V17.3291ZM132.762 19.6567C132.762 19.8413 132.725 20.0156 132.649 20.1797C132.581 20.3369 132.485 20.4771 132.362 20.6001C132.246 20.7163 132.106 20.8086 131.942 20.877C131.785 20.9453 131.617 20.9795 131.439 20.9795C131.255 20.9795 131.081 20.9453 130.917 20.877C130.759 20.8086 130.619 20.7163 130.496 20.6001C130.38 20.4771 130.288 20.3369 130.219 20.1797C130.151 20.0156 130.117 19.8413 130.117 19.6567C130.117 19.479 130.151 19.3115 130.219 19.1543C130.288 18.9902 130.38 18.8501 130.496 18.7339C130.619 18.6108 130.759 18.5151 130.917 18.4468C131.081 18.3716 131.255 18.334 131.439 18.334C131.617 18.334 131.785 18.3716 131.942 18.4468C132.106 18.5151 132.246 18.6108 132.362 18.7339C132.485 18.8501 132.581 18.9902 132.649 19.1543C132.725 19.3115 132.762 19.479 132.762 19.6567ZM144.544 12.5815H138.545C138.183 12.5815 137.91 12.6738 137.725 12.8584C137.541 13.0361 137.448 13.2993 137.448 13.6479V21H134.782V13.6479C134.782 13.1899 134.84 12.7798 134.957 12.4175C135.073 12.0552 135.227 11.7373 135.418 11.4639C135.616 11.1836 135.842 10.9478 136.095 10.7563C136.348 10.5581 136.611 10.3975 136.884 10.2744C137.165 10.1514 137.445 10.0625 137.725 10.0078C138.012 9.94629 138.279 9.91553 138.525 9.91553H144.544V12.5815ZM158.428 19.6567C158.428 19.8481 158.394 20.0259 158.325 20.1899C158.257 20.354 158.161 20.4976 158.038 20.6206C157.922 20.7368 157.782 20.8291 157.618 20.8975C157.46 20.9658 157.29 21 157.105 21H151.076C150.748 21 150.396 20.9624 150.02 20.8872C149.65 20.812 149.285 20.6924 148.922 20.5283C148.56 20.3574 148.208 20.1455 147.866 19.8926C147.531 19.6328 147.237 19.3218 146.984 18.9595C146.731 18.5903 146.526 18.1665 146.369 17.688C146.219 17.2095 146.144 16.6694 146.144 16.0679V9.91553H148.81V16.0679C148.81 16.4165 148.868 16.731 148.984 17.0112C149.107 17.2847 149.271 17.5205 149.476 17.7188C149.681 17.917 149.92 18.0708 150.194 18.1802C150.474 18.2827 150.775 18.334 151.096 18.334H155.762V9.91553H158.428V19.6567Z" fill="#16425B"/>
<path d="M0 6.25C0 5.42157 0.671573 4.75 1.5 4.75H9C10.6568 4.75 12 6.09314 12 7.75V10C12 10.8285 11.3285 11.5 10.5 11.5H0V6.25Z" fill="#62BEC1"/>
<path d="M4.5 1H2.25V3.25H4.5V1Z" fill="#62BEC1"/>
<path d="M9 1H6.75V3.25H9V1Z" fill="#62BEC1"/>
<path d="M4.5 22.75H2.25V25H4.5V22.75Z" fill="#62BEC1"/>
<path d="M9 22.75H6.75V25H9V22.75Z" fill="#62BEC1"/>
<path d="M9 7H3C2.58579 7 2.25 7.33579 2.25 7.75V8.5C2.25 8.91421 2.58579 9.25 3 9.25H9C9.41421 9.25 9.75 8.91421 9.75 8.5V7.75C9.75 7.33579 9.41421 7 9 7Z" fill="white"/>
<path d="M0 13.75H10.5C11.3285 13.75 12 14.4216 12 15.25V17.5C12 19.1568 10.6568 20.5 9 20.5H1.5C0.671573 20.5 0 19.8285 0 19V13.75Z" fill="#62BEC1"/>
<path d="M9 16H3C2.58579 16 2.25 16.3358 2.25 16.75V17.5C2.25 17.9142 2.58579 18.25 3 18.25H9C9.41421 18.25 9.75 17.9142 9.75 17.5V16.75C9.75 16.3358 9.41421 16 9 16Z" fill="white"/>
</svg>
